Bodoni-96-Book-Italic.ufo
<glyph name="numbersign" format="2">
  <advance width="630"/>
  <unicode hex="0023"/>
  <outline>
    <contour>
      <point x="66" y="250" type="line"/>
      <point x="606" y="250" type="line"/>
      <point x="606" y="248" type="line"/>
      <point x="66" y="248" type="line"/>
    </contour>
    <contour>
      <point x="116" y="517" type="line"/>
      <point x="656" y="517" type="line"/>
      <point x="656" y="515" type="line"/>
      <point x="116" y="515" type="line"/>
    </contour>
    <contour>
      <point x="550" y="754" type="line"/>
      <point x="552" y="755" type="line"/>
      <point x="377" y="-5" type="line"/>
      <point x="375" y="-6" type="line"/>
    </contour>
    <contour>
      <point x="350" y="755" type="line"/>
      <point x="352" y="755" type="line"/>
      <point x="177" y="-5" type="line"/>
      <point x="175" y="-5" type="line"/>
    </contour>
  </outline>
</glyph>
<glyph name="dollar" format="2">
  <advance width="4440"/>
  <unicode hex="0024"/>
  <outline>
    <contour>
      <point x="2840" y="6640" type="line"/>
      <point x="2856" y="6640" type="line"/>
      <point x="1176" y="-640" type="line"/>
      <point x="1160" y="-640" type="line"/>
    </contour>
    <contour>
      <point x="3584" y="6640" type="line"/>
      <point x="3600" y="6640" type="line"/>
      <point x="1920" y="-640" type="line"/>
      <point x="1904" y="-640" type="line"/>
    </contour>
    <contour>
      <point x="1600" y="4920" type="curve" smooth="yes"/>
      <point x="1600" y="3360"/>
      <point x="4120" y="3840"/>
      <point x="4120" y="1680" type="curve" smooth="yes"/>
      <point x="4120" y="560"/>
      <point x="3168" y="-120"/>
      <point x="2040" y="-120" type="curve" smooth="yes"/>
      <point x="952" y="-120"/>
      <point x="240" y="600"/>
      <point x="240" y="1160" type="curve" smooth="yes"/>
      <point x="240" y="1528"/>
      <point x="448" y="1816"/>
      <point x="800" y="1816" type="curve" smooth="yes"/>
      <point x="1040" y="1816"/>
      <point x="1312" y="1640"/>
      <point x="1312" y="1288" type="curve" smooth="yes"/>
      <point x="1312" y="968"/>
      <point x="1048" y="768"/>
      <point x="776" y="768" type="curve" smooth="yes"/>
      <point x="488" y="768"/>
      <point x="288" y="992"/>
      <point x="256" y="1160" type="curve"/>
      <point x="288" y="496"/>
      <point x="1088" y="-104"/>
      <point x="2040" y="-104" type="curve" smooth="yes"/>
      <point x="2888" y="-104"/>
      <point x="3400" y="608"/>
      <point x="3400" y="1320" type="curve" smooth="yes"/>
      <point x="3400" y="3040"/>
      <point x="960" y="2360"/>
      <point x="960" y="4360" type="curve" smooth="yes"/>
      <point x="960" y="5320"/>
      <point x="1888" y="6080"/>
      <point x="2856" y="6080" type="curve" smooth="yes"/>
      <point x="3720" y="6080"/>
      <point x="4520" y="5488"/>
      <point x="4520" y="4840" type="curve" smooth="yes"/>
      <point x="4520" y="4472"/>
      <point x="4312" y="4184"/>
      <point x="3960" y="4184" type="curve" smooth="yes"/>
      <point x="3720" y="4184"/>
      <point x="3448" y="4360"/>
      <point x="3448" y="4712" type="curve" smooth="yes"/>
      <point x="3448" y="5032"/>
      <point x="3712" y="5232"/>
      <point x="3984" y="5232" type="curve" smooth="yes"/>
      <point x="4272" y="5232"/>
      <point x="4456" y="5040"/>
      <point x="4504" y="4840" type="curve"/>
      <point x="4488" y="5480"/>
      <point x="3736" y="6040"/>
      <point x="2936" y="6040" type="curve" smooth="yes"/>
      <point x="2088" y="6040"/>
      <point x="1600" y="5552"/>
    </contour>
  </outline>
</glyph>
<glyph name="parenleft" format="2">
  <advance width="2896"/>
  <unicode hex="0028"/>
  <outline>
    <contour>
      <point x="2192" y="-1344" type="curve"/>
      <point x="2184" y="-1360" type="line"/>
      <point x="1280" y="-960"/>
      <point x="656" y="96"/>
      <point x="656" y="1480" type="curve" smooth="yes"/>
      <point x="656" y="3824"/>
      <point x="2320" y="5760"/>
      <point x="3864" y="6400" type="curve"/>
      <point x="3872" y="6384" type="line"/>
      <point x="2640" y="5744"/>
      <point x="1392" y="3256"/>
      <point x="1392" y="1320" type="curve" smooth="yes"/>
      <point x="1392" y="-136"/>
      <point x="1600" y="-784"/>
    </contour>
  </outline>
</glyph>
<glyph name="comma" format="2">
  <advance width="1720"/>
  <unicode hex="002C"/>
  <outline>
    <contour>
      <point x="80" y="368" type="curve" smooth="yes"/>
      <point x="80" y="632"/>
      <point x="312" y="864"/>
      <point x="616" y="864" type="curve" smooth="yes"/>
      <point x="928" y="864"/>
      <point x="1152" y="672"/>
      <point x="1152" y="248" type="curve" smooth="yes"/>
      <point x="1152" y="-472"/>
      <point x="424" y="-1248"/>
      <point x="-296" y="-1248" type="curve"/>
      <point x="-296" y="-1232" type="line"/>
      <point x="376" y="-1232"/>
      <point x="1224" y="-448"/>
      <point x="1128" y="400" type="curve"/>
      <point x="1120" y="152"/>
      <point x="912" y="-80"/>
      <point x="576" y="-80" type="curve" smooth="yes"/>
      <point x="232" y="-80"/>
      <point x="80" y="128"/>
    </contour>
  </outline>
</glyph>
<glyph name="slash" format="2">
  <advance width="520"/>
  <unicode hex="002F"/>
  <outline>
    <contour>
      <point x="617" y="780" type="line"/>
      <point x="620" y="780" type="line"/>
      <point x="-27" y="-150" type="line"/>
      <point x="-30" y="-150" type="line"/>
    </contour>
  </outline>
</glyph>
<glyph name="two" format="2">
  <advance width="4400"/>
  <unicode hex="0032"/>
  <outline>
    <contour>
      <point x="744" y="4240" type="curve"/>
      <point x="776" y="4424"/>
      <point x="960" y="4656"/>
      <point x="1272" y="4656" type="curve" smooth="yes"/>
      <point x="1504" y="4656"/>
      <point x="1744" y="4488"/>
      <point x="1744" y="4208" type="curve" smooth="yes"/>
      <point x="1744" y="3888"/>
      <point x="1520" y="3696"/>
      <point x="1240" y="3696" type="curve" smooth="yes"/>
      <point x="960" y="3696"/>
      <point x="728" y="3896"/>
      <point x="728" y="4232" type="curve" smooth="yes"/>
      <point x="728" y="5168"/>
      <point x="1584" y="6080"/>
      <point x="2680" y="6080" type="curve" smooth="yes"/>
      <point x="3648" y="6080"/>
      <point x="4296" y="5600"/>
      <point x="4296" y="4800" type="curve" smooth="yes"/>
      <point x="4296" y="4000"/>
      <point x="3216" y="3216"/>
      <point x="2744" y="2840" type="curve" smooth="yes"/>
      <point x="64" y="720" type="line"/>
      <point x="3448" y="720" type="line"/>
      <point x="3576" y="1320" type="line"/>
      <point x="3592" y="1320" type="line"/>
      <point x="3312" y="0" type="line"/>
      <point x="-328" y="0" type="line"/>
      <point x="-216" y="520" type="line"/>
      <point x="2128" y="2368" type="line" smooth="yes"/>
      <point x="2872" y="2960"/>
      <point x="3496" y="3888"/>
      <point x="3496" y="4640" type="curve" smooth="yes"/>
      <point x="3496" y="5472"/>
      <point x="3208" y="6016"/>
      <point x="2504" y="6016" type="curve" smooth="yes"/>
      <point x="1552" y="6016"/>
      <point x="744" y="5096"/>
    </contour>
  </outline>
</glyph>
<glyph name="four" format="2">
  <advance width="595"/>
  <unicode hex="0034"/>
  <outline>
    <contour>
      <point x="510" y="2" type="line"/>
      <point x="510" y="0" type="line"/>
      <point x="245" y="0" type="line"/>
      <point x="245" y="2" type="line"/>
    </contour>
    <contour>
      <point x="585" y="750" type="line"/>
      <point x="425" y="0" type="line"/>
      <point x="330" y="0" type="line"/>
      <point x="485" y="736" type="line"/>
      <point x="39" y="216" type="line"/>
      <point x="585" y="216" type="line"/>
      <point x="585" y="214" type="line"/>
      <point x="35" y="214" type="line"/>
      <point x="495" y="750" type="line"/>
    </contour>
  </outline>
</glyph>
<glyph name="five" format="2">
  <advance width="4000"/>
  <unicode hex="0035"/>
  <outline>
    <contour>
      <point x="3760" y="2240" type="curve" smooth="yes"/>
      <point x="3760" y="1040"/>
      <point x="2616" y="-80"/>
      <point x="1408" y="-80" type="curve" smooth="yes"/>
      <point x="592" y="-80"/>
      <point x="0" y="456"/>
      <point x="0" y="1032" type="curve" smooth="yes"/>
      <point x="0" y="1360"/>
      <point x="216" y="1528"/>
      <point x="456" y="1528" type="curve" smooth="yes"/>
      <point x="656" y="1528"/>
      <point x="912" y="1400"/>
      <point x="912" y="1080" type="curve" smooth="yes"/>
      <point x="912" y="800"/>
      <point x="688" y="640"/>
      <point x="456" y="640" type="curve" smooth="yes"/>
      <point x="208" y="640"/>
      <point x="48" y="792"/>
      <point x="16" y="952" type="curve"/>
      <point x="72" y="400"/>
      <point x="656" y="-56"/>
      <point x="1328" y="-56" type="curve" smooth="yes"/>
      <point x="2360" y="-56"/>
      <point x="2920" y="1328"/>
      <point x="2920" y="2240" type="curve" smooth="yes"/>
      <point x="2920" y="2992"/>
      <point x="2712" y="3728"/>
      <point x="2080" y="3728" type="curve" smooth="yes"/>
      <point x="1408" y="3728"/>
      <point x="840" y="3440"/>
      <point x="560" y="3016" type="curve"/>
      <point x="544" y="3016" type="line"/>
      <point x="832" y="3472"/>
      <point x="1448" y="3760"/>
      <point x="2176" y="3760" type="curve" smooth="yes"/>
      <point x="3144" y="3760"/>
      <point x="3760" y="3280"/>
    </contour>
    <contour>
      <point x="4200" y="5280" type="line"/>
      <point x="1344" y="5280" type="line"/>
      <point x="552" y="3016" type="line"/>
      <point x="536" y="3016" type="line"/>
      <point x="1576" y="6000" type="line"/>
      <point x="4328" y="6000" type="line"/>
      <point x="4424" y="6440" type="line"/>
      <point x="4440" y="6440" type="line"/>
    </contour>
  </outline>
</glyph>
<glyph name="six" format="2">
  <advance width="4480"/>
  <unicode hex="0036"/>
  <outline>
    <contour>
      <point x="3520" y="2400" type="curve" smooth="yes"/>
      <point x="3520" y="3232"/>
      <point x="3344" y="3832"/>
      <point x="2872" y="3832" type="curve" smooth="yes"/>
      <point x="1752" y="3832"/>
      <point x="1200" y="2240"/>
      <point x="1200" y="1360" type="curve"/>
      <point x="1184" y="1360" type="line"/>
      <point x="1184" y="2296"/>
      <point x="1760" y="3920"/>
      <point x="3048" y="3920" type="curve" smooth="yes"/>
      <point x="3696" y="3920"/>
      <point x="4320" y="3520"/>
      <point x="4320" y="2400" type="curve" smooth="yes"/>
      <point x="4320" y="1200"/>
      <point x="3160" y="-80"/>
      <point x="1952" y="-80" type="curve" smooth="yes"/>
      <point x="1064" y="-80"/>
      <point x="400" y="480"/>
      <point x="400" y="1760" type="curve" smooth="yes"/>
      <point x="400" y="3464"/>
      <point x="2256" y="6080"/>
      <point x="4520" y="6080" type="curve"/>
      <point x="4520" y="6064" type="line"/>
      <point x="2808" y="6064"/>
      <point x="1208" y="3536"/>
      <point x="1208" y="1680" type="curve"/>
      <point x="1200" y="1360" type="line"/>
      <point x="1200" y="608"/>
      <point x="1424" y="-64"/>
      <point x="1976" y="-64" type="curve" smooth="yes"/>
      <point x="2848" y="-64"/>
      <point x="3520" y="1408"/>
    </contour>
  </outline>
</glyph>
<glyph name="seven" format="2">
  <advance width="505"/>
  <unicode hex="0037"/>
  <outline>
    <contour>
      <point x="148" y="66" type="curve" smooth="yes"/>
      <point x="148" y="145"/>
      <point x="263" y="287"/>
      <point x="343" y="398" type="curve" smooth="yes"/>
      <point x="390" y="463"/>
      <point x="470" y="575"/>
      <point x="531" y="655" type="curve"/>
      <point x="133" y="655" type="line"/>
      <point x="116" y="580" type="line"/>
      <point x="114" y="580" type="line"/>
      <point x="150" y="750" type="line"/>
      <point x="605" y="750" type="line"/>
      <point x="605" y="750"/>
      <point x="433" y="522"/>
      <point x="345" y="397" type="curve" smooth="yes"/>
      <point x="279" y="303"/>
      <point x="205" y="217"/>
      <point x="205" y="172" type="curve" smooth="yes"/>
      <point x="205" y="119"/>
      <point x="278" y="131"/>
      <point x="278" y="58" type="curve" smooth="yes"/>
      <point x="278" y="21"/>
      <point x="253" y="-10"/>
      <point x="209" y="-10" type="curve" smooth="yes"/>
      <point x="175" y="-10"/>
      <point x="148" y="17"/>
    </contour>
  </outline>
</glyph>
<glyph name="eight" format="2">
  <advance width="4400"/>
  <unicode hex="0038"/>
  <outline>
    <contour>
      <point x="1760" y="4240" type="curve" smooth="yes"/>
      <point x="1760" y="3648"/>
      <point x="1888" y="3048"/>
      <point x="2440" y="3048" type="curve" smooth="yes"/>
      <point x="3152" y="3048"/>
      <point x="3600" y="3808"/>
      <point x="3600" y="4720" type="curve" smooth="yes"/>
      <point x="3600" y="5312"/>
      <point x="3472" y="6064"/>
      <point x="2920" y="6064" type="curve" smooth="yes"/>
      <point x="2208" y="6064"/>
      <point x="1760" y="5152"/>
    </contour>
    <contour>
      <point x="960" y="4200" type="curve" smooth="yes"/>
      <point x="960" y="5160"/>
      <point x="1792" y="6080"/>
      <point x="2920" y="6080" type="curve" smooth="yes"/>
      <point x="3888" y="6080"/>
      <point x="4400" y="5400"/>
      <point x="4400" y="4760" type="curve" smooth="yes"/>
      <point x="4400" y="3800"/>
      <point x="3568" y="3032"/>
      <point x="2440" y="3032" type="curve" smooth="yes"/>
      <point x="1472" y="3032"/>
      <point x="960" y="3560"/>
    </contour>
    <contour>
      <point x="1040" y="1280" type="curve" smooth="yes"/>
      <point x="1040" y="528"/>
      <point x="1328" y="-64"/>
      <point x="1960" y="-64" type="curve" smooth="yes"/>
      <point x="2752" y="-64"/>
      <point x="3200" y="848"/>
      <point x="3200" y="1760" type="curve" smooth="yes"/>
      <point x="3200" y="2512"/>
      <point x="2912" y="3032"/>
      <point x="2280" y="3032" type="curve" smooth="yes"/>
      <point x="1488" y="3032"/>
      <point x="1040" y="2192"/>
    </contour>
    <contour>
      <point x="240" y="1200" type="curve" smooth="yes"/>
      <point x="240" y="2160"/>
      <point x="912" y="3048"/>
      <point x="2280" y="3048" type="curve" smooth="yes"/>
      <point x="3408" y="3048"/>
      <point x="4000" y="2640"/>
      <point x="4000" y="1840" type="curve" smooth="yes"/>
      <point x="4000" y="880"/>
      <point x="3328" y="-80"/>
      <point x="1960" y="-80" type="curve" smooth="yes"/>
      <point x="832" y="-80"/>
      <point x="240" y="400"/>
    </contour>
  </outline>
</glyph>
<glyph name="less" format="2">
  <advance width="4480"/>
  <unicode hex="003C"/>
  <outline>
    <contour>
      <point x="880" y="3096" type="line"/>
      <point x="880" y="3112" type="line"/>
      <point x="4720" y="4800" type="line"/>
      <point x="4720" y="4784" type="line"/>
    </contour>
    <contour>
      <point x="880" y="3088" type="line"/>
      <point x="880" y="3104" type="line"/>
      <point x="4000" y="1416" type="line"/>
      <point x="4000" y="1400" type="line"/>
    </contour>
  </outline>
</glyph>
<glyph name="at" format="2">
  <advance width="8080"/>
  <unicode hex="0040"/>
  <outline>
    <contour>
      <point x="4912" y="2768" type="curve" smooth="yes"/>
      <point x="4912" y="1632"/>
      <point x="4272" y="560"/>
      <point x="3472" y="560" type="curve" smooth="yes"/>
      <point x="2840" y="560"/>
      <point x="2272" y="1008"/>
      <point x="2272" y="1840" type="curve" smooth="yes"/>
      <point x="2272" y="3040"/>
      <point x="3192" y="4232"/>
      <point x="4144" y="4232" type="curve" smooth="yes"/>
      <point x="4792" y="4232"/>
      <point x="4912" y="3424"/>
    </contour>
    <contour>
      <point x="4896" y="2768" type="curve" smooth="yes"/>
      <point x="4896" y="3104"/>
      <point x="4880" y="4192"/>
      <point x="4192" y="4192" type="curve" smooth="yes"/>
      <point x="3600" y="4192"/>
      <point x="3080" y="2752"/>
      <point x="3080" y="1760" type="curve" smooth="yes"/>
      <point x="3080" y="1224"/>
      <point x="3200" y="600"/>
      <point x="3552" y="600" type="curve" smooth="yes"/>
      <point x="4264" y="600"/>
      <point x="4896" y="1664"/>
    </contour>
    <contour>
      <point x="4720" y="1680" type="curve" smooth="yes"/>
      <point x="5296" y="4160" type="line"/>
      <point x="6016" y="4160" type="line"/>
      <point x="5440" y="1680" type="line" smooth="yes"/>
      <point x="5416" y="1576"/>
      <point x="5048" y="592"/>
      <point x="5664" y="592" type="curve" smooth="yes"/>
      <point x="6856" y="592"/>
      <point x="7624" y="1936"/>
      <point x="7624" y="3208" type="curve" smooth="yes"/>
      <point x="7624" y="4656"/>
      <point x="6696" y="6304"/>
      <point x="4680" y="6304" type="curve" smooth="yes"/>
      <point x="2352" y="6304"/>
      <point x="456" y="4184"/>
      <point x="456" y="1688" type="curve" smooth="yes"/>
      <point x="456" y="-816"/>
      <point x="1904" y="-1696"/>
      <point x="3352" y="-1696" type="curve" smooth="yes"/>
      <point x="4648" y="-1696"/>
      <point x="5600" y="-1280"/>
      <point x="6264" y="-504" type="curve"/>
      <point x="6280" y="-512" type="line"/>
      <point x="5608" y="-1296"/>
      <point x="4656" y="-1712"/>
      <point x="3352" y="-1712" type="curve" smooth="yes"/>
      <point x="1888" y="-1712"/>
      <point x="440" y="-832"/>
      <point x="440" y="1688" type="curve" smooth="yes"/>
      <point x="440" y="4192"/>
      <point x="2336" y="6320"/>
      <point x="4680" y="6320" type="curve" smooth="yes"/>
      <point x="6704" y="6320"/>
      <point x="7640" y="4672"/>
      <point x="7640" y="3208" type="curve" smooth="yes"/>
      <point x="7640" y="1928"/>
      <point x="6896" y="544"/>
      <point x="5528" y="544" type="curve" smooth="yes"/>
      <point x="4816" y="544"/>
      <point x="4608" y="1184"/>
    </contour>
  </outline>
</glyph>
<glyph name="B" format="2">
  <advance width="2560"/>
  <unicode hex="0042"/>
  <outline>
    <contour>
      <point x="1086" y="0" type="curve" smooth="yes"/>
      <point x="-184" y="0" type="line"/>
      <point x="-184" y="8" type="line"/>
      <point x="1086" y="8" type="line" smooth="yes"/>
      <point x="1582" y="8"/>
      <point x="1904" y="536"/>
      <point x="1904" y="1064" type="curve" smooth="yes"/>
      <point x="1904" y="1428"/>
      <point x="1708" y="1572"/>
      <point x="1396" y="1572" type="curve" smooth="yes"/>
      <point x="880" y="1572" type="line"/>
      <point x="880" y="1582" type="line"/>
      <point x="1438" y="1582" type="line" smooth="yes"/>
      <point x="2016" y="1582"/>
      <point x="2356" y="1394"/>
      <point x="2356" y="984" type="curve" smooth="yes"/>
      <point x="2356" y="370"/>
      <point x="1786" y="0"/>
    </contour>
    <contour>
      <point x="902" y="3072" type="line"/>
      <point x="1290" y="3072" type="line"/>
      <point x="574" y="0" type="line"/>
      <point x="184" y="0" type="line"/>
    </contour>
    <contour>
      <point x="1372" y="1572" type="curve" smooth="yes"/>
      <point x="880" y="1572" type="line"/>
      <point x="880" y="1582" type="line"/>
      <point x="1372" y="1582" type="line" smooth="yes"/>
      <point x="1684" y="1582"/>
      <point x="2170" y="1910"/>
      <point x="2170" y="2520" type="curve" smooth="yes"/>
      <point x="2170" y="2802"/>
      <point x="2032" y="3064"/>
      <point x="1680" y="3064" type="curve" smooth="yes"/>
      <point x="532" y="3064" type="line"/>
      <point x="532" y="3072" type="line"/>
      <point x="1680" y="3072" type="line" smooth="yes"/>
      <point x="2340" y="3072"/>
      <point x="2580" y="2888"/>
      <point x="2580" y="2478" type="curve" smooth="yes"/>
      <point x="2580" y="1986"/>
      <point x="2032" y="1572"/>
    </contour>
  </outline>
</glyph>
<glyph name="C" format="2">
  <advance width="663"/>
  <unicode hex="0043"/>
  <outline>
    <contour>
      <point x="310" y="-10" type="curve" smooth="yes"/>
      <point x="157" y="-10"/>
      <point x="55" y="92"/>
      <point x="55" y="255" type="curve" smooth="yes"/>
      <point x="55" y="528"/>
      <point x="257" y="760"/>
      <point x="490" y="760" type="curve" smooth="yes"/>
      <point x="608" y="760"/>
      <point x="698" y="688"/>
      <point x="680" y="545" type="curve"/>
      <point x="678" y="545" type="line"/>
      <point x="696" y="682"/>
      <point x="612" y="756"/>
      <point x="500" y="756" type="curve" smooth="yes"/>
      <point x="286" y="756"/>
      <point x="165" y="427"/>
      <point x="165" y="195" type="curve" smooth="yes"/>
      <point x="165" y="93"/>
      <point x="216" y="-6"/>
      <point x="320" y="-6" type="curve" smooth="yes"/>
      <point x="454" y="-6"/>
      <point x="568" y="86"/>
      <point x="608" y="205" type="curve"/>
      <point x="610" y="205" type="line"/>
      <point x="570" y="82"/>
      <point x="453" y="-10"/>
    </contour>
    <contour>
      <point x="678" y="545" type="line"/>
      <point x="681" y="565" type="line"/>
      <point x="683" y="611"/>
      <point x="676" y="650"/>
      <point x="655" y="680" type="curve"/>
      <point x="726" y="750" type="line"/>
      <point x="728" y="750" type="line"/>
      <point x="680" y="545" type="line"/>
    </contour>
    <contour>
      <point x="608" y="205" type="line"/>
      <point x="610" y="205" type="line"/>
      <point x="555" y="0" type="line"/>
      <point x="553" y="0" type="line"/>
      <point x="520" y="70" type="line"/>
      <point x="546" y="96"/>
      <point x="571" y="119"/>
      <point x="597" y="174" type="curve"/>
    </contour>
  </outline>
</glyph>
<glyph name="E" format="2">
  <advance width="4592"/>
  <unicode hex="0045"/>
  <outline>
    <contour>
      <point x="992" y="6000" type="line"/>
      <point x="5192" y="6000" type="line"/>
      <point x="4808" y="4360" type="line"/>
      <point x="4792" y="4360" type="line"/>
      <point x="4992" y="5216"/>
      <point x="4728" y="5984"/>
      <point x="3792" y="5984" type="curve" smooth="yes"/>
      <point x="992" y="5984" type="line"/>
    </contour>
    <contour>
      <point x="1712" y="6000" type="line"/>
      <point x="2472" y="6000" type="line"/>
      <point x="1080" y="0" type="line"/>
      <point x="320" y="0" type="line"/>
    </contour>
    <contour>
      <point x="2264" y="3096" type="curve" smooth="yes"/>
      <point x="1696" y="3096" type="line"/>
      <point x="1696" y="3112" type="line"/>
      <point x="2264" y="3112" type="line" smooth="yes"/>
      <point x="2720" y="3112"/>
      <point x="3216" y="3408"/>
      <point x="3336" y="3944" type="curve"/>
      <point x="3352" y="3944" type="line"/>
      <point x="2960" y="2224" type="line"/>
      <point x="2944" y="2224" type="line"/>
      <point x="3064" y="2760"/>
      <point x="2720" y="3096"/>
    </contour>
    <contour>
      <point x="3880" y="0" type="line"/>
      <point x="-360" y="0" type="line"/>
      <point x="-360" y="16" type="line"/>
      <point x="2400" y="16" type="line" smooth="yes"/>
      <point x="3496" y="16"/>
      <point x="4048" y="784"/>
      <point x="4280" y="1800" type="curve"/>
      <point x="4296" y="1800" type="line"/>
    </contour>
  </outline>
</glyph>
<glyph name="G" format="2">
  <advance width="5824"/>
  <unicode hex="0047"/>
  <outline>
    <contour>
      <point x="4352" y="2280" type="line"/>
      <point x="5184" y="2280" type="line"/>
      <point x="4936" y="1320" type="line"/>
      <point x="4576" y="816"/>
      <point x="3784" y="-80"/>
      <point x="2480" y="-80" type="curve" smooth="yes"/>
      <point x="1256" y="-80"/>
      <point x="440" y="736"/>
      <point x="440" y="2040" type="curve" smooth="yes"/>
      <point x="440" y="4224"/>
      <point x="2056" y="6080"/>
      <point x="3920" y="6080" type="curve" smooth="yes"/>
      <point x="4864" y="6080"/>
      <point x="5584" y="5504"/>
      <point x="5440" y="4360" type="curve"/>
      <point x="5424" y="4360" type="line"/>
      <point x="5560" y="5480"/>
      <point x="4864" y="6048"/>
      <point x="4000" y="6048" type="curve" smooth="yes"/>
      <point x="2288" y="6048"/>
      <point x="1320" y="3416"/>
      <point x="1320" y="1560" type="curve" smooth="yes"/>
      <point x="1320" y="744"/>
      <point x="1576" y="-64"/>
      <point x="2408" y="-64" type="curve" smooth="yes"/>
      <point x="3400" y="-64"/>
      <point x="3896" y="824"/>
      <point x="4016" y="1000" type="curve"/>
    </contour>
    <contour>
      <point x="3640" y="2288" type="line"/>
      <point x="5800" y="2288" type="line"/>
      <point x="5800" y="2272" type="line"/>
      <point x="3640" y="2272" type="line"/>
    </contour>
    <contour>
      <point x="5808" y="6000" type="line"/>
      <point x="5824" y="6000" type="line"/>
      <point x="5440" y="4360" type="line"/>
      <point x="5424" y="4360" type="line"/>
      <point x="5448" y="4544" type="line"/>
      <point x="5464" y="4848"/>
      <point x="5408" y="5168"/>
      <point x="5240" y="5440" type="curve"/>
    </contour>
  </outline>
</glyph>
<glyph name="J" format="2">
  <advance width="421"/>
  <unicode hex="004A"/>
  <outline>
    <contour>
      <point x="186" y="750" type="line"/>
      <point x="516" y="750" type="line"/>
      <point x="516" y="748" type="line"/>
      <point x="186" y="748" type="line"/>
    </contour>
    <contour>
      <point x="-28" y="84" type="curve"/>
      <point x="-28" y="38"/>
      <point x="9" y="-28"/>
      <point x="76" y="-28" type="curve" smooth="yes"/>
      <point x="137" y="-28"/>
      <point x="162" y="50"/>
      <point x="194" y="190" type="curve" smooth="yes"/>
      <point x="321" y="750" type="line"/>
      <point x="416" y="750" type="line"/>
      <point x="285" y="169" type="line"/>
      <point x="245" y="99"/>
      <point x="177" y="-30"/>
      <point x="76" y="-30" type="curve" smooth="yes"/>
      <point x="9" y="-30"/>
      <point x="-30" y="35"/>
      <point x="-30" y="85" type="curve" smooth="yes"/>
      <point x="-30" y="127"/>
      <point x="-3" y="150"/>
      <point x="27" y="150" type="curve" smooth="yes"/>
      <point x="52" y="150"/>
      <point x="83" y="132"/>
      <point x="83" y="91" type="curve" smooth="yes"/>
      <point x="83" y="54"/>
      <point x="56" y="33"/>
      <point x="30" y="33" type="curve" smooth="yes"/>
      <point x="-3" y="33"/>
      <point x="-21" y="54"/>
    </contour>
  </outline>
</glyph>
<glyph name="K" format="2">
  <advance width="672"/>
  <unicode hex="004B"/>
  <outline>
    <contour>
      <point x="-40" y="2" type="line"/>
      <point x="230" y="2" type="line"/>
      <point x="230" y="0" type="line"/>
      <point x="-40" y="0" type="line"/>
    </contour>
    <contour>
      <point x="125" y="750" type="line"/>
      <point x="395" y="750" type="line"/>
      <point x="395" y="748" type="line"/>
      <point x="125" y="748" type="line"/>
    </contour>
    <contour>
      <point x="215" y="750" type="line"/>
      <point x="310" y="750" type="line"/>
      <point x="140" y="0" type="line"/>
      <point x="45" y="0" type="line"/>
    </contour>
    <contour>
      <point x="144" y="217" type="line"/>
      <point x="141" y="217" type="line"/>
      <point x="633" y="750" type="line"/>
      <point x="636" y="750" type="line"/>
    </contour>
    <contour>
      <point x="297" y="2" type="line"/>
      <point x="607" y="2" type="line"/>
      <point x="607" y="0" type="line"/>
      <point x="297" y="0" type="line"/>
    </contour>
    <contour>
      <point x="732" y="748" type="line"/>
      <point x="492" y="748" type="line"/>
      <point x="492" y="750" type="line"/>
      <point x="732" y="750" type="line"/>
    </contour>
    <contour>
      <point x="519" y="0" type="line"/>
      <point x="415" y="0" type="line"/>
      <point x="292" y="380" type="line"/>
      <point x="364" y="456" type="line"/>
    </contour>
  </outline>
</glyph>
<glyph name="M" format="2">
  <advance width="6680"/>
  <unicode hex="004D"/>
  <outline>
    <contour>
      <point x="4160" y="16" type="line"/>
      <point x="6120" y="16" type="line"/>
      <point x="6120" y="0" type="line"/>
      <point x="4160" y="0" type="line"/>
    </contour>
    <contour>
      <point x="6728" y="5984" type="line"/>
      <point x="5480" y="0" type="line"/>
      <point x="4720" y="0" type="line"/>
      <point x="6000" y="6000" type="line"/>
      <point x="7240" y="6000" type="line"/>
      <point x="7240" y="5984" type="line"/>
    </contour>
    <contour>
      <point x="3200" y="1040" type="line"/>
      <point x="5992" y="6000" type="line"/>
      <point x="6008" y="6000" type="line"/>
      <point x="2584" y="-80" type="line"/>
      <point x="2568" y="-80" type="line"/>
      <point x="1624" y="6000" type="line"/>
      <point x="2392" y="6000" type="line"/>
    </contour>
    <contour>
      <point x="1616" y="5984" type="line"/>
      <point x="1000" y="5984" type="line"/>
      <point x="1000" y="6000" type="line"/>
      <point x="1640" y="6000" type="line"/>
      <point x="384" y="0" type="line"/>
      <point x="368" y="0" type="line"/>
    </contour>
    <contour>
      <point x="-200" y="16" type="line"/>
      <point x="1016" y="16" type="line"/>
      <point x="1016" y="0" type="line"/>
      <point x="-200" y="0" type="line"/>
    </contour>
  </outline>
</glyph>
<glyph name="N" format="2">
  <advance width="715"/>
  <unicode hex="004E"/>
  <outline>
    <contour>
      <point x="713" y="750" type="line"/>
      <point x="715" y="750" type="line"/>
      <point x="542" y="-10" type="line"/>
      <point x="540" y="-10" type="line"/>
      <point x="225" y="750" type="line"/>
      <point x="340" y="750" type="line"/>
      <point x="578" y="157" type="line"/>
    </contour>
    <contour>
      <point x="593" y="750" type="line"/>
      <point x="810" y="750" type="line"/>
      <point x="810" y="748" type="line"/>
      <point x="593" y="748" type="line"/>
    </contour>
    <contour>
      <point x="-35" y="2" type="line"/>
      <point x="187" y="2" type="line"/>
      <point x="187" y="0" type="line"/>
      <point x="-35" y="0" type="line"/>
    </contour>
    <contour>
      <point x="225" y="748" type="line"/>
      <point x="125" y="748" type="line"/>
      <point x="125" y="750" type="line"/>
      <point x="228" y="750" type="line"/>
      <point x="61" y="0" type="line"/>
      <point x="59" y="0" type="line"/>
    </contour>
  </outline>
</glyph>
<glyph name="O" format="2">
  <advance width="5720"/>
  <unicode hex="004F"/>
  <outline>
    <contour>
      <point x="2400" y="-80" type="curve" smooth="yes"/>
      <point x="1176" y="-80"/>
      <point x="440" y="736"/>
      <point x="440" y="2040" type="curve" smooth="yes"/>
      <point x="440" y="4224"/>
      <point x="2056" y="6080"/>
      <point x="3760" y="6080" type="curve" smooth="yes"/>
      <point x="4904" y="6080"/>
      <point x="5720" y="5264"/>
      <point x="5720" y="3960" type="curve" smooth="yes"/>
      <point x="5720" y="1776"/>
      <point x="4184" y="-80"/>
    </contour>
    <contour>
      <point x="3760" y="6064" type="curve" smooth="yes"/>
      <point x="2288" y="6064"/>
      <point x="1320" y="3416"/>
      <point x="1320" y="1560" type="curve" smooth="yes"/>
      <point x="1320" y="744"/>
      <point x="1568" y="-64"/>
      <point x="2400" y="-64" type="curve" smooth="yes"/>
      <point x="3952" y="-64"/>
      <point x="4840" y="2584"/>
      <point x="4840" y="4440" type="curve" smooth="yes"/>
      <point x="4840" y="5096"/>
      <point x="4592" y="6064"/>
    </contour>
  </outline>
</glyph>
<glyph name="S" format="2">
  <advance width="4448"/>
  <unicode hex="0053"/>
  <outline>
    <contour>
      <point x="4360" y="4632" type="line"/>
      <point x="4328" y="4904"/>
      <point x="4288" y="5184"/>
      <point x="4104" y="5496" type="curve"/>
      <point x="4712" y="6080" type="line"/>
      <point x="4728" y="6080" type="line"/>
      <point x="4368" y="4440" type="line"/>
      <point x="4352" y="4440" type="line"/>
    </contour>
    <contour>
      <point x="4368" y="4440" type="curve"/>
      <point x="4352" y="4440" type="line"/>
      <point x="4352" y="5472"/>
      <point x="3856" y="6064"/>
      <point x="2840" y="6064" type="curve" smooth="yes"/>
      <point x="2232" y="6064"/>
      <point x="1584" y="5624"/>
      <point x="1584" y="4920" type="curve" smooth="yes"/>
      <point x="1584" y="3360"/>
      <point x="4024" y="3920"/>
      <point x="4024" y="1760" type="curve" smooth="yes"/>
      <point x="4024" y="640"/>
      <point x="2992" y="-120"/>
      <point x="1864" y="-120" type="curve" smooth="yes"/>
      <point x="616" y="-120"/>
      <point x="256" y="600"/>
      <point x="224" y="1560" type="curve"/>
      <point x="240" y="1560" type="line"/>
      <point x="272" y="600"/>
      <point x="632" y="-104"/>
      <point x="1864" y="-104" type="curve" smooth="yes"/>
      <point x="2712" y="-104"/>
      <point x="3384" y="448"/>
      <point x="3384" y="1240" type="curve" smooth="yes"/>
      <point x="3384" y="2960"/>
      <point x="944" y="2520"/>
      <point x="944" y="4280" type="curve" smooth="yes"/>
      <point x="944" y="5480"/>
      <point x="2112" y="6080"/>
      <point x="2840" y="6080" type="curve" smooth="yes"/>
      <point x="3864" y="6080"/>
      <point x="4368" y="5488"/>
    </contour>
    <contour>
      <point x="-144" y="-80" type="line"/>
      <point x="-160" y="-80" type="line"/>
      <point x="224" y="1560" type="line"/>
      <point x="240" y="1560" type="line"/>
      <point x="256" y="1224" type="line"/>
      <point x="304" y="936"/>
      <point x="368" y="720"/>
      <point x="472" y="544" type="curve"/>
    </contour>
  </outline>
</glyph>
<glyph name="T" format="2">
  <advance width="622"/>
  <unicode hex="0054"/>
  <outline>
    <contour>
      <point x="93" y="2" type="line"/>
      <point x="408" y="2" type="line"/>
      <point x="408" y="0" type="line"/>
      <point x="93" y="0" type="line"/>
    </contour>
    <contour>
      <point x="377" y="750" type="line"/>
      <point x="472" y="750" type="line"/>
      <point x="298" y="0" type="line"/>
      <point x="203" y="0" type="line"/>
    </contour>
    <contour>
      <point x="567" y="748" type="curve" smooth="yes"/>
      <point x="272" y="748" type="line" smooth="yes"/>
      <point x="155" y="748"/>
      <point x="106" y="651"/>
      <point x="77" y="525" type="curve"/>
      <point x="75" y="525" type="line"/>
      <point x="127" y="750" type="line"/>
      <point x="722" y="750" type="line"/>
      <point x="670" y="525" type="line"/>
      <point x="668" y="525" type="line"/>
      <point x="697" y="652"/>
      <point x="684" y="748"/>
    </contour>
  </outline>
</glyph>
<glyph name="U" format="2">
  <advance width="2800"/>
  <unicode hex="0055"/>
  <outline>
    <contour>
      <point x="2392" y="3072" type="line"/>
      <point x="3190" y="3072" type="line"/>
      <point x="3190" y="3064" type="line"/>
      <point x="2392" y="3064" type="line"/>
    </contour>
    <contour>
      <point x="508" y="3072" type="line"/>
      <point x="1676" y="3072" type="line"/>
      <point x="1676" y="3064" type="line"/>
      <point x="508" y="3064" type="line"/>
    </contour>
    <contour>
      <point x="2818" y="3072" type="line"/>
      <point x="2826" y="3072" type="line"/>
      <point x="2334" y="942" type="line" smooth="yes"/>
      <point x="2186" y="298"/>
      <point x="1914" y="-62"/>
      <point x="1266" y="-62" type="curve" smooth="yes"/>
      <point x="598" y="-62"/>
      <point x="250" y="270"/>
      <point x="406" y="942" type="curve" smooth="yes"/>
      <point x="898" y="3072" type="line"/>
      <point x="1286" y="3072" type="line"/>
      <point x="794" y="984" type="line" smooth="yes"/>
      <point x="676" y="472"/>
      <point x="738" y="-50"/>
      <point x="1286" y="-50" type="curve" smooth="yes"/>
      <point x="1916" y="-50"/>
      <point x="2182" y="316"/>
      <point x="2326" y="942" type="curve" smooth="yes"/>
    </contour>
  </outline>
</glyph>
<glyph name="V" format="2">
  <advance width="720"/>
  <unicode hex="0056"/>
  <outline>
    <contour>
      <point x="820" y="748" type="line"/>
      <point x="600" y="748" type="line"/>
      <point x="600" y="750" type="line"/>
      <point x="820" y="750" type="line"/>
    </contour>
    <contour>
      <point x="410" y="748" type="line"/>
      <point x="120" y="748" type="line"/>
      <point x="120" y="750" type="line"/>
      <point x="410" y="750" type="line"/>
    </contour>
    <contour>
      <point x="359" y="115" type="line"/>
      <point x="724" y="750" type="line"/>
      <point x="726" y="750" type="line"/>
      <point x="287" y="-15" type="line"/>
      <point x="285" y="-15" type="line"/>
      <point x="190" y="750" type="line"/>
      <point x="295" y="750" type="line"/>
    </contour>
  </outline>
</glyph>
<glyph name="W" format="2">
  <advance width="963"/>
  <unicode hex="0057"/>
  <outline>
    <contour>
      <point x="351" y="137" type="line"/>
      <point x="511" y="417" type="line"/>
      <point x="513" y="417" type="line"/>
      <point x="270" y="-10" type="line"/>
      <point x="268" y="-10" type="line"/>
      <point x="212" y="750" type="line"/>
      <point x="307" y="750" type="line"/>
    </contour>
    <contour>
      <point x="554" y="417" type="line"/>
      <point x="552" y="417" type="line"/>
      <point x="742" y="750" type="line"/>
      <point x="744" y="750" type="line"/>
    </contour>
    <contour>
      <point x="1063" y="748" type="line"/>
      <point x="873" y="748" type="line"/>
      <point x="873" y="750" type="line"/>
      <point x="1063" y="750" type="line"/>
    </contour>
    <contour>
      <point x="825" y="748" type="line"/>
      <point x="120" y="748" type="line"/>
      <point x="120" y="750" type="line"/>
      <point x="825" y="750" type="line"/>
    </contour>
    <contour>
      <point x="612" y="137" type="line"/>
      <point x="962" y="750" type="line"/>
      <point x="964" y="750" type="line"/>
      <point x="531" y="-10" type="line"/>
      <point x="529" y="-10" type="line"/>
      <point x="473" y="750" type="line"/>
      <point x="568" y="750" type="line"/>
    </contour>
  </outline>
</glyph>
<glyph name="X" format="2">
  <advance width="2968"/>
  <unicode hex="0058"/>
  <outline>
    <contour>
      <point x="1594" y="1544" type="line"/>
      <point x="1582" y="1544" type="line"/>
      <point x="2756" y="3064" type="line"/>
      <point x="2768" y="3064" type="line"/>
    </contour>
    <contour>
      <point x="262" y="0" type="line"/>
      <point x="250" y="0" type="line"/>
      <point x="1590" y="1708" type="line"/>
      <point x="1602" y="1708" type="line"/>
    </contour>
    <contour>
      <point x="1556" y="8" type="line"/>
      <point x="2704" y="8" type="line"/>
      <point x="2704" y="0" type="line"/>
      <point x="1556" y="0" type="line"/>
    </contour>
    <contour>
      <point x="-204" y="8" type="line"/>
      <point x="778" y="8" type="line"/>
      <point x="778" y="0" type="line"/>
      <point x="-204" y="0" type="line"/>
    </contour>
    <contour>
      <point x="1782" y="3064" type="line"/>
      <point x="634" y="3064" type="line"/>
      <point x="634" y="3072" type="line"/>
      <point x="1782" y="3072" type="line"/>
    </contour>
    <contour>
      <point x="3216" y="3064" type="line"/>
      <point x="2314" y="3064" type="line"/>
      <point x="2314" y="3072" type="line"/>
      <point x="3216" y="3072" type="line"/>
    </contour>
    <contour>
      <point x="2420" y="0" type="line"/>
      <point x="1950" y="0" type="line"/>
      <point x="922" y="3072" type="line"/>
      <point x="1376" y="3072" type="line"/>
    </contour>
  </outline>
</glyph>
<glyph name="Y" format="2">
  <advance width="2968"/>
  <unicode hex="0059"/>
  <outline>
    <contour>
      <point x="3380" y="3064" type="line"/>
      <point x="2520" y="3064" type="line"/>
      <point x="2520" y="3072" type="line"/>
      <point x="3380" y="3072" type="line"/>
    </contour>
    <contour>
      <point x="1680" y="3064" type="line"/>
      <point x="492" y="3064" type="line"/>
      <point x="492" y="3072" type="line"/>
      <point x="1680" y="3072" type="line"/>
    </contour>
    <contour>
      <point x="676" y="8" type="line"/>
      <point x="1844" y="8" type="line"/>
      <point x="1844" y="0" type="line"/>
      <point x="676" y="0" type="line"/>
    </contour>
    <contour>
      <point x="1774" y="1532" type="line"/>
      <point x="3006" y="3064" type="line"/>
      <point x="3014" y="3064" type="line"/>
      <point x="1778" y="1520" type="line"/>
      <point x="1434" y="0" type="line"/>
      <point x="1044" y="0" type="line"/>
      <point x="1392" y="1544" type="line"/>
      <point x="778" y="3072" type="line"/>
      <point x="1228" y="3072" type="line"/>
    </contour>
  </outline>
</glyph>
<glyph name="Z" format="2">
  <advance width="4392"/>
  <unicode hex="005A"/>
  <outline>
    <contour>
      <point x="3952" y="5984" type="line"/>
      <point x="2512" y="5984" type="line" smooth="yes"/>
      <point x="1416" y="5984"/>
      <point x="1008" y="5496"/>
      <point x="808" y="4640" type="curve"/>
      <point x="792" y="4640" type="line"/>
      <point x="1112" y="6000" type="line"/>
      <point x="4912" y="6000" type="line"/>
      <point x="4912" y="5984" type="line"/>
      <point x="560" y="16" type="line"/>
      <point x="2240" y="16" type="line" smooth="yes"/>
      <point x="3336" y="16"/>
      <point x="3744" y="512"/>
      <point x="3976" y="1520" type="curve"/>
      <point x="3992" y="1520" type="line"/>
      <point x="3640" y="0" type="line"/>
      <point x="-400" y="0" type="line"/>
      <point x="-400" y="16" type="line"/>
    </contour>
  </outline>
</glyph>
<glyph name="bracketleft" format="2">
  <advance width="335"/>
  <unicode hex="005B"/>
  <outline>
    <contour>
      <point x="200" y="780" type="line"/>
      <point x="440" y="780" type="line"/>
      <point x="440" y="778" type="line"/>
      <point x="289" y="778" type="line"/>
      <point x="81" y="-148" type="line"/>
      <point x="230" y="-148" type="line"/>
      <point x="230" y="-150" type="line"/>
      <point x="-10" y="-150" type="line"/>
    </contour>
  </outline>
</glyph>
<glyph name="asciicircum" format="2">
  <advance width="4360"/>
  <unicode hex="005E"/>
  <outline>
    <contour>
      <point x="3264" y="5784" type="line"/>
      <point x="1688" y="5032" type="line"/>
      <point x="1680" y="5040" type="line"/>
      <point x="3040" y="6160" type="line"/>
      <point x="3560" y="6160" type="line"/>
      <point x="4440" y="5040" type="line"/>
      <point x="4432" y="5032" type="line"/>
    </contour>
  </outline>
</glyph>
<glyph name="a" format="2">
  <advance width="600"/>
  <unicode hex="0061"/>
  <outline>
    <contour>
      <point x="376" y="314" type="curve" smooth="yes"/>
      <point x="376" y="387"/>
      <point x="354" y="456"/>
      <point x="303" y="456" type="curve" smooth="yes"/>
      <point x="209" y="456"/>
      <point x="119" y="274"/>
      <point x="119" y="140" type="curve" smooth="yes"/>
      <point x="119" y="56"/>
      <point x="143" y="-1"/>
      <point x="194" y="-1" type="curve" smooth="yes"/>
      <point x="305" y="-1"/>
      <point x="376" y="200"/>
    </contour>
    <contour>
      <point x="378" y="314" type="curve" smooth="yes"/>
      <point x="378" y="206"/>
      <point x="315" y="-10"/>
      <point x="174" y="-10" type="curve" smooth="yes"/>
      <point x="105" y="-10"/>
      <point x="15" y="30"/>
      <point x="15" y="160" type="curve" smooth="yes"/>
      <point x="15" y="360"/>
      <point x="172" y="470"/>
      <point x="271" y="470" type="curve" smooth="yes"/>
      <point x="347" y="470"/>
      <point x="378" y="406"/>
    </contour>
    <contour>
      <point x="580" y="163" type="line"/>
      <point x="542" y="63"/>
      <point x="483" y="-10"/>
      <point x="402" y="-10" type="curve" smooth="yes"/>
      <point x="355" y="-10"/>
      <point x="331" y="13"/>
      <point x="331" y="63" type="curve" smooth="yes"/>
      <point x="331" y="68"/>
      <point x="332" y="79"/>
      <point x="333" y="85" type="curve" smooth="yes"/>
      <point x="355" y="182" type="line"/>
      <point x="372" y="253" type="line"/>
      <point x="376" y="281" type="line"/>
      <point x="418" y="460" type="line"/>
      <point x="508" y="460" type="line"/>
      <point x="409" y="36" type="line" smooth="yes"/>
      <point x="408" y="30"/>
      <point x="407" y="23"/>
      <point x="407" y="18" type="curve" smooth="yes"/>
      <point x="407" y="7"/>
      <point x="412" y="-1"/>
      <point x="425" y="-1" type="curve" smooth="yes"/>
      <point x="482" y="-1"/>
      <point x="542" y="67"/>
      <point x="578" y="164" type="curve"/>
    </contour>
  </outline>
</glyph>
<glyph name="b" format="2">
  <advance width="558"/>
  <unicode hex="0062"/>
  <outline>
    <contour>
      <point x="208" y="748" type="line"/>
      <point x="131" y="748" type="line"/>
      <point x="131" y="750" type="line"/>
      <point x="299" y="750" type="line"/>
      <point x="159" y="140" type="line"/>
      <point x="159" y="66"/>
      <point x="177" y="-8"/>
      <point x="238" y="-8" type="curve" smooth="yes"/>
      <point x="342" y="-8"/>
      <point x="424" y="195"/>
      <point x="424" y="329" type="curve" smooth="yes"/>
      <point x="424" y="403"/>
      <point x="400" y="459"/>
      <point x="349" y="459" type="curve" smooth="yes"/>
      <point x="273" y="459"/>
      <point x="206" y="354"/>
      <point x="179" y="230" type="curve"/>
      <point x="177" y="230" type="line"/>
      <point x="214" y="402"/>
      <point x="290" y="469"/>
      <point x="371" y="469" type="curve" smooth="yes"/>
      <point x="438" y="469"/>
      <point x="528" y="438"/>
      <point x="528" y="310" type="curve" smooth="yes"/>
      <point x="528" y="100"/>
      <point x="385" y="-10"/>
      <point x="236" y="-10" type="curve" smooth="yes"/>
      <point x="135" y="-10"/>
      <point x="85" y="57"/>
      <point x="65" y="120" type="curve"/>
    </contour>
  </outline>
</glyph>
<glyph name="c" format="2">
  <advance width="3712"/>
  <unicode hex="0063"/>
  <outline>
    <contour>
      <point x="3536" y="2824" type="curve"/>
      <point x="3520" y="3328"/>
      <point x="3144" y="3720"/>
      <point x="2464" y="3720" type="curve" smooth="yes"/>
      <point x="1432" y="3720"/>
      <point x="952" y="2112"/>
      <point x="952" y="1120" type="curve" smooth="yes"/>
      <point x="952" y="448"/>
      <point x="1040" y="-48"/>
      <point x="1472" y="-48" type="curve" smooth="yes"/>
      <point x="2072" y="-48"/>
      <point x="2824" y="336"/>
      <point x="3216" y="1144" type="curve"/>
      <point x="3232" y="1144" type="line"/>
      <point x="2864" y="368"/>
      <point x="2120" y="-80"/>
      <point x="1392" y="-80" type="curve" smooth="yes"/>
      <point x="824" y="-80"/>
      <point x="120" y="240"/>
      <point x="120" y="1280" type="curve" smooth="yes"/>
      <point x="120" y="2800"/>
      <point x="1296" y="3760"/>
      <point x="2344" y="3760" type="curve" smooth="yes"/>
      <point x="3080" y="3760"/>
      <point x="3552" y="3384"/>
      <point x="3552" y="2808" type="curve" smooth="yes"/>
      <point x="3552" y="2400"/>
      <point x="3296" y="2232"/>
      <point x="3056" y="2232" type="curve" smooth="yes"/>
      <point x="2856" y="2232"/>
      <point x="2600" y="2360"/>
      <point x="2600" y="2680" type="curve" smooth="yes"/>
      <point x="2600" y="2960"/>
      <point x="2840" y="3120"/>
      <point x="3072" y="3120" type="curve" smooth="yes"/>
      <point x="3360" y="3120"/>
      <point x="3488" y="3000"/>
    </contour>
  </outline>
</glyph>
<glyph name="f" format="2">
  <advance width="2688"/>
  <unicode hex="0066"/>
  <outline>
    <contour>
      <point x="416" y="3680" type="line"/>
      <point x="2976" y="3680" type="line"/>
      <point x="2976" y="3664" type="line"/>
      <point x="416" y="3664" type="line"/>
    </contour>
    <contour>
      <point x="3936" y="5408" type="curve"/>
      <point x="3904" y="5680"/>
      <point x="3640" y="6064"/>
      <point x="3064" y="6064" type="curve" smooth="yes"/>
      <point x="2504" y="6064"/>
      <point x="2112" y="5296"/>
      <point x="1936" y="4320" type="curve" smooth="yes"/>
      <point x="1128" y="-96" type="line" smooth="yes"/>
      <point x="944" y="-1104"/>
      <point x="264" y="-2080"/>
      <point x="-776" y="-2080" type="curve" smooth="yes"/>
      <point x="-1424" y="-2080"/>
      <point x="-1680" y="-1624"/>
      <point x="-1680" y="-1288" type="curve" smooth="yes"/>
      <point x="-1680" y="-960"/>
      <point x="-1464" y="-792"/>
      <point x="-1224" y="-792" type="curve" smooth="yes"/>
      <point x="-1024" y="-792"/>
      <point x="-776" y="-904"/>
      <point x="-776" y="-1224" type="curve" smooth="yes"/>
      <point x="-776" y="-1544"/>
      <point x="-1024" y="-1672"/>
      <point x="-1256" y="-1672" type="curve" smooth="yes"/>
      <point x="-1416" y="-1672"/>
      <point x="-1600" y="-1560"/>
      <point x="-1648" y="-1408" type="curve"/>
      <point x="-1616" y="-1680"/>
      <point x="-1352" y="-2064"/>
      <point x="-776" y="-2064" type="curve" smooth="yes"/>
      <point x="-216" y="-2064"/>
      <point x="176" y="-1296"/>
      <point x="352" y="-320" type="curve" smooth="yes"/>
      <point x="1160" y="4096" type="line" smooth="yes"/>
      <point x="1344" y="5104"/>
      <point x="2024" y="6080"/>
      <point x="3064" y="6080" type="curve" smooth="yes"/>
      <point x="3712" y="6080"/>
      <point x="3968" y="5624"/>
      <point x="3968" y="5288" type="curve" smooth="yes"/>
      <point x="3968" y="4960"/>
      <point x="3752" y="4792"/>
      <point x="3512" y="4792" type="curve" smooth="yes"/>
      <point x="3312" y="4792"/>
      <point x="3064" y="4904"/>
      <point x="3064" y="5224" type="curve" smooth="yes"/>
      <point x="3064" y="5544"/>
      <point x="3312" y="5672"/>
      <point x="3544" y="5672" type="curve" smooth="yes"/>
      <point x="3704" y="5672"/>
      <point x="3888" y="5552"/>
    </contour>
  </outline>
</glyph>
<glyph name="g" format="2">
  <advance width="4416"/>
  <unicode hex="0067"/>
  <outline>
    <contour>
      <point x="1000" y="-48" type="line"/>
      <point x="640" y="-168"/>
      <point x="400" y="-640"/>
      <point x="400" y="-1136" type="curve" smooth="yes"/>
      <point x="400" y="-1600"/>
      <point x="536" y="-2056"/>
      <point x="1144" y="-2056" type="curve" smooth="yes"/>
      <point x="1936" y="-2056"/>
      <point x="2896" y="-1600"/>
      <point x="2896" y="-696" type="curve" smooth="yes"/>
      <point x="2896" y="-264"/>
      <point x="2680" y="-72"/>
      <point x="2240" y="-72" type="curve" smooth="yes"/>
      <point x="2072" y="-72"/>
      <point x="1744" y="-72"/>
      <point x="1568" y="-72" type="curve" smooth="yes"/>
      <point x="848" y="-72"/>
      <point x="264" y="-24"/>
      <point x="264" y="472" type="curve" smooth="yes"/>
      <point x="264" y="1064"/>
      <point x="1152" y="1296"/>
      <point x="1592" y="1296" type="curve"/>
      <point x="1592" y="1280" type="line"/>
      <point x="1328" y="1280"/>
      <point x="840" y="1192"/>
      <point x="840" y="848" type="curve" smooth="yes"/>
      <point x="840" y="632"/>
      <point x="1256" y="552"/>
      <point x="1696" y="552" type="curve" smooth="yes"/>
      <point x="1976" y="552"/>
      <point x="2040" y="560"/>
      <point x="2264" y="560" type="curve" smooth="yes"/>
      <point x="2864" y="560"/>
      <point x="3200" y="352"/>
      <point x="3200" y="-336" type="curve" smooth="yes"/>
      <point x="3200" y="-1304"/>
      <point x="2240" y="-2080"/>
      <point x="1120" y="-2080" type="curve" smooth="yes"/>
      <point x="216" y="-2080"/>
      <point x="-360" y="-1840"/>
      <point x="-360" y="-1240" type="curve" smooth="yes"/>
      <point x="-360" y="-432"/>
      <point x="632" y="-48"/>
      <point x="992" y="-48" type="curve" smooth="yes"/>
    </contour>
    <contour>
      <point x="4576" y="3152" type="curve" smooth="yes"/>
      <point x="4576" y="2792"/>
      <point x="4368" y="2672"/>
      <point x="4168" y="2672" type="curve" smooth="yes"/>
      <point x="3968" y="2672"/>
      <point x="3768" y="2808"/>
      <point x="3768" y="3072" type="curve" smooth="yes"/>
      <point x="3768" y="3296"/>
      <point x="3968" y="3448"/>
      <point x="4192" y="3448" type="curve" smooth="yes"/>
      <point x="4416" y="3448"/>
      <point x="4552" y="3272"/>
      <point x="4568" y="3160" type="curve"/>
      <point x="4536" y="3520"/>
      <point x="4280" y="3704"/>
      <point x="3944" y="3704" type="curve" smooth="yes"/>
      <point x="3616" y="3704"/>
      <point x="3104" y="3384"/>
      <point x="2800" y="2768" type="curve"/>
      <point x="2784" y="2776" type="line"/>
      <point x="3104" y="3424"/>
      <point x="3624" y="3720"/>
      <point x="3944" y="3720" type="curve" smooth="yes"/>
      <point x="4352" y="3720"/>
      <point x="4576" y="3456"/>
    </contour>
    <contour>
      <point x="1592" y="1296" type="curve" smooth="yes"/>
      <point x="2304" y="1296"/>
      <point x="2624" y="2408"/>
      <point x="2624" y="3000" type="curve" smooth="yes"/>
      <point x="2624" y="3352"/>
      <point x="2464" y="3744"/>
      <point x="2152" y="3744" type="curve" smooth="yes"/>
      <point x="1440" y="3744"/>
      <point x="1120" y="2632"/>
      <point x="1120" y="2040" type="curve" smooth="yes"/>
      <point x="1120" y="1688"/>
      <point x="1280" y="1296"/>
    </contour>
    <contour>
      <point x="1592" y="1280" type="curve" smooth="yes"/>
      <point x="944" y="1280"/>
      <point x="408" y="1560"/>
      <point x="408" y="2280" type="curve" smooth="yes"/>
      <point x="408" y="3160"/>
      <point x="1264" y="3760"/>
      <point x="2152" y="3760" type="curve" smooth="yes"/>
      <point x="2800" y="3760"/>
      <point x="3336" y="3480"/>
      <point x="3336" y="2760" type="curve" smooth="yes"/>
      <point x="3336" y="1880"/>
      <point x="2480" y="1280"/>
    </contour>
  </outline>
</glyph>
<glyph name="h" format="2">
  <advance width="570"/>
  <unicode hex="0068"/>
  <outline>
    <contour>
      <point x="377" y="308" type="line" smooth="yes"/>
      <point x="403" y="385"/>
      <point x="405" y="462"/>
      <point x="359" y="462" type="curve" smooth="yes"/>
      <point x="270" y="462"/>
      <point x="184" y="326"/>
      <point x="149" y="173" type="curve"/>
      <point x="147" y="173" type="line"/>
      <point x="182" y="325"/>
      <point x="265" y="470"/>
      <point x="378" y="470" type="curve" smooth="yes"/>
      <point x="475" y="470"/>
      <point x="496" y="399"/>
      <point x="470" y="319" type="curve" smooth="yes"/>
      <point x="377" y="36" type="line" smooth="yes"/>
      <point x="375" y="30"/>
      <point x="374" y="23"/>
      <point x="374" y="18" type="curve" smooth="yes"/>
      <point x="374" y="7"/>
      <point x="380" y="-1"/>
      <point x="393" y="-1" type="curve" smooth="yes"/>
      <point x="453" y="-1"/>
      <point x="512" y="67"/>
      <point x="548" y="163" type="curve"/>
      <point x="550" y="163" type="line"/>
      <point x="512" y="63"/>
      <point x="453" y="-10"/>
      <point x="372" y="-10" type="curve" smooth="yes"/>
      <point x="325" y="-10"/>
      <point x="299" y="15"/>
      <point x="299" y="58" type="curve" smooth="yes"/>
      <point x="299" y="73"/>
      <point x="302" y="85"/>
      <point x="304" y="92" type="curve" smooth="yes"/>
    </contour>
    <contour>
      <point x="189" y="748" type="line"/>
      <point x="120" y="748" type="line"/>
      <point x="120" y="750" type="line"/>
      <point x="280" y="750" type="line"/>
      <point x="110" y="0" type="line"/>
      <point x="20" y="0" type="line"/>
    </contour>
  </outline>
</glyph>
<glyph name="i" format="2">
  <advance width="319"/>
  <unicode hex="0069"/>
  <outline>
    <contour>
      <point x="157" y="700" type="curve" smooth="yes"/>
      <point x="157" y="733"/>
      <point x="184" y="760"/>
      <point x="217" y="760" type="curve" smooth="yes"/>
      <point x="250" y="760"/>
      <point x="277" y="733"/>
      <point x="277" y="700" type="curve" smooth="yes"/>
      <point x="277" y="667"/>
      <point x="250" y="640"/>
      <point x="217" y="640" type="curve" smooth="yes"/>
      <point x="184" y="640"/>
      <point x="157" y="667"/>
    </contour>
    <contour>
      <point x="299" y="163" type="line"/>
      <point x="261" y="63"/>
      <point x="202" y="-10"/>
      <point x="121" y="-10" type="curve" smooth="yes"/>
      <point x="74" y="-10"/>
      <point x="50" y="13"/>
      <point x="50" y="63" type="curve" smooth="yes"/>
      <point x="50" y="68"/>
      <point x="51" y="79"/>
      <point x="52" y="85" type="curve" smooth="yes"/>
      <point x="136" y="458" type="line"/>
      <point x="65" y="458" type="line"/>
      <point x="65" y="460" type="line"/>
      <point x="227" y="460" type="line"/>
      <point x="128" y="36" type="line" smooth="yes"/>
      <point x="127" y="30"/>
      <point x="126" y="23"/>
      <point x="126" y="18" type="curve" smooth="yes"/>
      <point x="126" y="7"/>
      <point x="131" y="-1"/>
      <point x="144" y="-1" type="curve" smooth="yes"/>
      <point x="205" y="-1"/>
      <point x="262" y="68"/>
      <point x="298" y="164" type="curve"/>
    </contour>
  </outline>
</glyph>
<glyph name="l" format="2">
  <advance width="309"/>
  <unicode hex="006C"/>
  <outline>
    <contour>
      <point x="289" y="163" type="line"/>
      <point x="251" y="63"/>
      <point x="192" y="-10"/>
      <point x="111" y="-10" type="curve" smooth="yes"/>
      <point x="64" y="-10"/>
      <point x="40" y="13"/>
      <point x="40" y="63" type="curve" smooth="yes"/>
      <point x="40" y="68"/>
      <point x="41" y="79"/>
      <point x="42" y="85" type="curve" smooth="yes"/>
      <point x="194" y="748" type="line"/>
      <point x="101" y="748" type="line"/>
      <point x="101" y="750" type="line"/>
      <point x="284" y="750" type="line"/>
      <point x="118" y="36" type="line" smooth="yes"/>
      <point x="117" y="30"/>
      <point x="116" y="23"/>
      <point x="116" y="18" type="curve" smooth="yes"/>
      <point x="116" y="7"/>
      <point x="121" y="-1"/>
      <point x="134" y="-1" type="curve" smooth="yes"/>
      <point x="197" y="-1"/>
      <point x="255" y="75"/>
      <point x="288" y="164" type="curve"/>
    </contour>
  </outline>
</glyph>
<glyph name="m" format="2">
  <advance width="839"/>
  <unicode hex="006D"/>
  <outline>
    <contour>
      <point x="646" y="308" type="line" smooth="yes"/>
      <point x="672" y="385"/>
      <point x="681" y="462"/>
      <point x="635" y="462" type="curve" smooth="yes"/>
      <point x="546" y="462"/>
      <point x="465" y="326"/>
      <point x="427" y="173" type="curve"/>
      <point x="425" y="173" type="line"/>
      <point x="463" y="325"/>
      <point x="540" y="470"/>
      <point x="653" y="470" type="curve" smooth="yes"/>
      <point x="750" y="470"/>
      <point x="765" y="399"/>
      <point x="739" y="319" type="curve" smooth="yes"/>
      <point x="647" y="36" type="line" smooth="yes"/>
      <point x="645" y="30"/>
      <point x="644" y="23"/>
      <point x="644" y="18" type="curve" smooth="yes"/>
      <point x="644" y="7"/>
      <point x="650" y="-1"/>
      <point x="663" y="-1" type="curve" smooth="yes"/>
      <point x="727" y="-1"/>
      <point x="784" y="73"/>
      <point x="818" y="164" type="curve"/>
      <point x="819" y="163" type="line"/>
      <point x="781" y="63"/>
      <point x="722" y="-10"/>
      <point x="641" y="-10" type="curve" smooth="yes"/>
      <point x="594" y="-10"/>
      <point x="568" y="15"/>
      <point x="568" y="58" type="curve" smooth="yes"/>
      <point x="568" y="73"/>
      <point x="571" y="85"/>
      <point x="573" y="92" type="curve" smooth="yes"/>
    </contour>
    <contour>
      <point x="385" y="0" type="line"/>
      <point x="295" y="0" type="line"/>
      <point x="370" y="308" type="line" smooth="yes"/>
      <point x="389" y="387"/>
      <point x="405" y="462"/>
      <point x="359" y="462" type="curve" smooth="yes"/>
      <point x="274" y="462"/>
      <point x="190" y="336"/>
      <point x="151" y="173" type="curve"/>
      <point x="149" y="173" type="line"/>
      <point x="185" y="323"/>
      <point x="264" y="470"/>
      <point x="377" y="470" type="curve" smooth="yes"/>
      <point x="474" y="470"/>
      <point x="483" y="400"/>
      <point x="463" y="319" type="curve" smooth="yes"/>
    </contour>
    <contour>
      <point x="129" y="458" type="line"/>
      <point x="60" y="458" type="line"/>
      <point x="60" y="460" type="line"/>
      <point x="220" y="460" type="line"/>
      <point x="110" y="0" type="line"/>
      <point x="20" y="0" type="line"/>
    </contour>
  </outline>
</glyph>
<glyph name="n" format="2">
  <advance width="575"/>
  <unicode hex="006E"/>
  <outline>
    <contour>
      <point x="129" y="458" type="line"/>
      <point x="60" y="458" type="line"/>
      <point x="60" y="460" type="line"/>
      <point x="220" y="460" type="line"/>
      <point x="110" y="0" type="line"/>
      <point x="20" y="0" type="line"/>
    </contour>
    <contour>
      <point x="377" y="308" type="line" smooth="yes"/>
      <point x="403" y="385"/>
      <point x="405" y="462"/>
      <point x="359" y="462" type="curve" smooth="yes"/>
      <point x="270" y="462"/>
      <point x="186" y="326"/>
      <point x="151" y="173" type="curve"/>
      <point x="149" y="173" type="line"/>
      <point x="184" y="325"/>
      <point x="265" y="470"/>
      <point x="378" y="470" type="curve" smooth="yes"/>
      <point x="475" y="470"/>
      <point x="496" y="399"/>
      <point x="470" y="319" type="curve" smooth="yes"/>
      <point x="377" y="36" type="line" smooth="yes"/>
      <point x="375" y="30"/>
      <point x="374" y="23"/>
      <point x="374" y="18" type="curve" smooth="yes"/>
      <point x="374" y="7"/>
      <point x="380" y="-1"/>
      <point x="393" y="-1" type="curve" smooth="yes"/>
      <point x="453" y="-1"/>
      <point x="517" y="67"/>
      <point x="553" y="163" type="curve"/>
      <point x="555" y="163" type="line"/>
      <point x="517" y="63"/>
      <point x="453" y="-10"/>
      <point x="372" y="-10" type="curve" smooth="yes"/>
      <point x="325" y="-10"/>
      <point x="299" y="15"/>
      <point x="299" y="58" type="curve" smooth="yes"/>
      <point x="299" y="73"/>
      <point x="302" y="85"/>
      <point x="304" y="92" type="curve" smooth="yes"/>
    </contour>
  </outline>
</glyph>
<glyph name="o" format="2">
  <advance width="2138"/>
  <unicode hex="006F"/>
  <outline>
    <contour>
      <point x="794" y="-40" type="curve" smooth="yes"/>
      <point x="422" y="-40"/>
      <point x="62" y="124"/>
      <point x="62" y="656" type="curve" smooth="yes"/>
      <point x="62" y="1434"/>
      <point x="664" y="1926"/>
      <point x="1282" y="1926" type="curve" smooth="yes"/>
      <point x="1654" y="1926"/>
      <point x="2016" y="1760"/>
      <point x="2016" y="1228" type="curve" smooth="yes"/>
      <point x="2016" y="450"/>
      <point x="1412" y="-40"/>
    </contour>
    <contour>
      <point x="794" y="-28" type="curve" smooth="yes"/>
      <point x="1322" y="-28"/>
      <point x="1590" y="802"/>
      <point x="1590" y="1310" type="curve" smooth="yes"/>
      <point x="1590" y="1654"/>
      <point x="1504" y="1912"/>
      <point x="1282" y="1912" type="curve" smooth="yes"/>
      <point x="754" y="1912"/>
      <point x="488" y="1082"/>
      <point x="488" y="574" type="curve" smooth="yes"/>
      <point x="488" y="230"/>
      <point x="572" y="-28"/>
    </contour>
  </outline>
</glyph>
<glyph name="r" format="2">
  <advance width="3160"/>
  <unicode hex="0072"/>
  <outline>
    <contour>
      <point x="3360" y="3112" type="curve" smooth="yes"/>
      <point x="3360" y="2840"/>
      <point x="3200" y="2624"/>
      <point x="2896" y="2624" type="curve" smooth="yes"/>
      <point x="2632" y="2624"/>
      <point x="2424" y="2768"/>
      <point x="2424" y="3064" type="curve" smooth="yes"/>
      <point x="2424" y="3344"/>
      <point x="2648" y="3528"/>
      <point x="2880" y="3528" type="curve" smooth="yes"/>
      <point x="3080" y="3528"/>
      <point x="3264" y="3408"/>
      <point x="3336" y="3200" type="curve"/>
      <point x="3296" y="3496"/>
      <point x="3000" y="3744"/>
      <point x="2624" y="3744" type="curve" smooth="yes"/>
      <point x="1784" y="3744"/>
      <point x="1416" y="2168"/>
      <point x="1232" y="1384" type="curve"/>
      <point x="1216" y="1384" type="line"/>
      <point x="1432" y="2360"/>
      <point x="1808" y="3760"/>
      <point x="2624" y="3760" type="curve" smooth="yes"/>
      <point x="3000" y="3760"/>
      <point x="3360" y="3504"/>
    </contour>
    <contour>
      <point x="1072" y="3664" type="line"/>
      <point x="480" y="3664" type="line"/>
      <point x="480" y="3680" type="line"/>
      <point x="1760" y="3680" type="line"/>
      <point x="920" y="0" type="line"/>
      <point x="200" y="0" type="line"/>
    </contour>
  </outline>
</glyph>
<glyph name="s" format="2">
  <advance width="3136"/>
  <unicode hex="0073"/>
  <outline>
    <contour>
      <point x="2760" y="3040" type="curve"/>
      <point x="2712" y="3440"/>
      <point x="2264" y="3736"/>
      <point x="1712" y="3736" type="curve" smooth="yes"/>
      <point x="1288" y="3736"/>
      <point x="936" y="3472"/>
      <point x="936" y="3104" type="curve" smooth="yes"/>
      <point x="936" y="2224"/>
      <point x="2656" y="2200"/>
      <point x="2656" y="1136" type="curve" smooth="yes"/>
      <point x="2656" y="384"/>
      <point x="1936" y="-96"/>
      <point x="1160" y="-96" type="curve" smooth="yes"/>
      <point x="368" y="-96"/>
      <point x="-40" y="400"/>
      <point x="-40" y="840" type="curve" smooth="yes"/>
      <point x="-40" y="1168"/>
      <point x="216" y="1336"/>
      <point x="456" y="1336" type="curve" smooth="yes"/>
      <point x="656" y="1336"/>
      <point x="912" y="1208"/>
      <point x="912" y="888" type="curve" smooth="yes"/>
      <point x="912" y="608"/>
      <point x="688" y="448"/>
      <point x="456" y="448" type="curve" smooth="yes"/>
      <point x="144" y="448"/>
      <point x="8" y="672"/>
      <point x="-24" y="840" type="curve"/>
      <point x="-16" y="368"/>
      <point x="424" y="-80"/>
      <point x="1160" y="-80" type="curve" smooth="yes"/>
      <point x="1720" y="-80"/>
      <point x="2072" y="296"/>
      <point x="2072" y="704" type="curve" smooth="yes"/>
      <point x="2072" y="1560"/>
      <point x="408" y="1448"/>
      <point x="408" y="2616" type="curve" smooth="yes"/>
      <point x="408" y="3408"/>
      <point x="1128" y="3752"/>
      <point x="1712" y="3752" type="curve" smooth="yes"/>
      <point x="2336" y="3752"/>
      <point x="2776" y="3376"/>
      <point x="2776" y="3000" type="curve" smooth="yes"/>
      <point x="2776" y="2672"/>
      <point x="2576" y="2544"/>
      <point x="2336" y="2544" type="curve" smooth="yes"/>
      <point x="2136" y="2544"/>
      <point x="1920" y="2672"/>
      <point x="1920" y="2952" type="curve" smooth="yes"/>
      <point x="1920" y="3192"/>
      <point x="2128" y="3352"/>
      <point x="2312" y="3352" type="curve" smooth="yes"/>
      <point x="2560" y="3352"/>
      <point x="2712" y="3208"/>
    </contour>
  </outline>
</glyph>
<glyph name="t" format="2">
  <advance width="2528"/>
  <unicode hex="0074"/>
  <outline>
    <contour>
      <point x="288" y="3680" type="line"/>
      <point x="2448" y="3680" type="line"/>
      <point x="2448" y="3664" type="line"/>
      <point x="288" y="3664" type="line"/>
    </contour>
    <contour>
      <point x="2352" y="1304" type="line"/>
      <point x="2048" y="504"/>
      <point x="1576" y="-80"/>
      <point x="928" y="-80" type="curve" smooth="yes"/>
      <point x="552" y="-80"/>
      <point x="360" y="104"/>
      <point x="360" y="504" type="curve" smooth="yes"/>
      <point x="360" y="544"/>
      <point x="368" y="632"/>
      <point x="376" y="680" type="curve" smooth="yes"/>
      <point x="1160" y="4480" type="line"/>
      <point x="1872" y="4480" type="line"/>
      <point x="992" y="288" type="line" smooth="yes"/>
      <point x="984" y="240"/>
      <point x="976" y="184"/>
      <point x="976" y="144" type="curve" smooth="yes"/>
      <point x="976" y="56"/>
      <point x="1016" y="-8"/>
      <point x="1120" y="-8" type="curve" smooth="yes"/>
      <point x="1592" y="-8"/>
      <point x="2056" y="544"/>
      <point x="2344" y="1312" type="curve"/>
    </contour>
  </outline>
</glyph>
<glyph name="u" format="2">
  <advance width="4856"/>
  <unicode hex="0075"/>
  <outline>
    <contour>
      <point x="1800" y="3680" type="line"/>
      <point x="1184" y="1056" type="line" smooth="yes"/>
      <point x="1040" y="424"/>
      <point x="1056" y="0"/>
      <point x="1424" y="0" type="curve" smooth="yes"/>
      <point x="2048" y="0"/>
      <point x="2768" y="984"/>
      <point x="3088" y="2296" type="curve"/>
      <point x="3104" y="2296" type="line"/>
      <point x="2800" y="1080"/>
      <point x="2136" y="-80"/>
      <point x="1232" y="-80" type="curve" smooth="yes"/>
      <point x="456" y="-80"/>
      <point x="352" y="472"/>
      <point x="496" y="1128" type="curve" smooth="yes"/>
      <point x="1064" y="3664" type="line"/>
      <point x="504" y="3664" type="line"/>
      <point x="504" y="3680" type="line"/>
    </contour>
    <contour>
      <point x="4696" y="1304" type="line"/>
      <point x="4392" y="504"/>
      <point x="3920" y="-80"/>
      <point x="3272" y="-80" type="curve" smooth="yes"/>
      <point x="2896" y="-80"/>
      <point x="2704" y="104"/>
      <point x="2704" y="504" type="curve" smooth="yes"/>
      <point x="2704" y="544"/>
      <point x="2712" y="632"/>
      <point x="2720" y="680" type="curve" smooth="yes"/>
      <point x="3392" y="3680" type="line"/>
      <point x="4120" y="3680" type="line"/>
      <point x="3328" y="288" type="line" smooth="yes"/>
      <point x="3320" y="240"/>
      <point x="3312" y="184"/>
      <point x="3312" y="144" type="curve" smooth="yes"/>
      <point x="3312" y="56"/>
      <point x="3352" y="-8"/>
      <point x="3456" y="-8" type="curve" smooth="yes"/>
      <point x="3968" y="-8"/>
      <point x="4424" y="608"/>
      <point x="4688" y="1312" type="curve"/>
    </contour>
  </outline>
</glyph>
<glyph name="v" format="2">
  <advance width="526"/>
  <unicode hex="0076"/>
  <outline>
    <contour>
      <point x="217" y="122" type="line" smooth="yes"/>
      <point x="204" y="43"/>
      <point x="192" y="-2"/>
      <point x="248" y="-2" type="curve" smooth="yes"/>
      <point x="352" y="-2"/>
      <point x="509" y="191"/>
      <point x="509" y="344" type="curve" smooth="yes"/>
      <point x="509" y="391"/>
      <point x="500" y="419"/>
      <point x="492" y="432" type="curve"/>
      <point x="493" y="413"/>
      <point x="481" y="355"/>
      <point x="433" y="355" type="curve" smooth="yes"/>
      <point x="388" y="355"/>
      <point x="372" y="387"/>
      <point x="372" y="412" type="curve" smooth="yes"/>
      <point x="372" y="442"/>
      <point x="396" y="469"/>
      <point x="433" y="469" type="curve" smooth="yes"/>
      <point x="496" y="469"/>
      <point x="511" y="405"/>
      <point x="511" y="344" type="curve" smooth="yes"/>
      <point x="511" y="192"/>
      <point x="355" y="-10"/>
      <point x="232" y="-10" type="curve" smooth="yes"/>
      <point x="135" y="-10"/>
      <point x="112" y="49"/>
      <point x="127" y="131" type="curve" smooth="yes"/>
      <point x="180" y="424" type="line" smooth="yes"/>
      <point x="181" y="430"/>
      <point x="182" y="437"/>
      <point x="182" y="442" type="curve" smooth="yes"/>
      <point x="182" y="453"/>
      <point x="176" y="461"/>
      <point x="163" y="461" type="curve" smooth="yes"/>
      <point x="102" y="461"/>
      <point x="43" y="382"/>
      <point x="12" y="296" type="curve"/>
      <point x="10" y="297" type="line"/>
      <point x="48" y="397"/>
      <point x="107" y="470"/>
      <point x="188" y="470" type="curve" smooth="yes"/>
      <point x="235" y="470"/>
      <point x="261" y="445"/>
      <point x="261" y="402" type="curve" smooth="yes"/>
      <point x="261" y="387"/>
      <point x="258" y="375"/>
      <point x="257" y="368" type="curve" smooth="yes"/>
    </contour>
  </outline>
</glyph>
<glyph name="w" format="2">
  <advance width="6392"/>
  <unicode hex="0077"/>
  <outline>
    <contour>
      <point x="1408" y="1056" type="line" smooth="yes"/>
      <point x="1200" y="440"/>
      <point x="1264" y="0"/>
      <point x="1632" y="0" type="curve" smooth="yes"/>
      <point x="2336" y="0"/>
      <point x="3008" y="1072"/>
      <point x="3312" y="2296" type="curve"/>
      <point x="3328" y="2296" type="line"/>
      <point x="3024" y="1080"/>
      <point x="2360" y="-80"/>
      <point x="1456" y="-80" type="curve" smooth="yes"/>
      <point x="680" y="-80"/>
      <point x="512" y="488"/>
      <point x="720" y="1128" type="curve" smooth="yes"/>
      <point x="1464" y="3392" type="line" smooth="yes"/>
      <point x="1480" y="3440"/>
      <point x="1488" y="3496"/>
      <point x="1488" y="3536" type="curve" smooth="yes"/>
      <point x="1488" y="3624"/>
      <point x="1440" y="3688"/>
      <point x="1336" y="3688" type="curve" smooth="yes"/>
      <point x="808" y="3688"/>
      <point x="360" y="3072"/>
      <point x="96" y="2368" type="curve"/>
      <point x="80" y="2376" type="line"/>
      <point x="384" y="3176"/>
      <point x="856" y="3760"/>
      <point x="1504" y="3760" type="curve" smooth="yes"/>
      <point x="1880" y="3760"/>
      <point x="2088" y="3560"/>
      <point x="2088" y="3216" type="curve" smooth="yes"/>
      <point x="2088" y="3096"/>
      <point x="2064" y="3000"/>
      <point x="2048" y="2944" type="curve" smooth="yes"/>
    </contour>
    <contour>
      <point x="3640" y="3680" type="line"/>
      <point x="4360" y="3680" type="line"/>
      <point x="3808" y="1352" type="line" smooth="yes"/>
      <point x="3648" y="680"/>
      <point x="3680" y="-32"/>
      <point x="4352" y="-32" type="curve" smooth="yes"/>
      <point x="5592" y="-32"/>
      <point x="6256" y="1728"/>
      <point x="6256" y="2752" type="curve" smooth="yes"/>
      <point x="6256" y="3040"/>
      <point x="6200" y="3272"/>
      <point x="6160" y="3352" type="curve"/>
      <point x="6160" y="3008"/>
      <point x="5928" y="2840"/>
      <point x="5624" y="2840" type="curve" smooth="yes"/>
      <point x="5304" y="2840"/>
      <point x="5152" y="3096"/>
      <point x="5152" y="3296" type="curve" smooth="yes"/>
      <point x="5152" y="3536"/>
      <point x="5344" y="3752"/>
      <point x="5640" y="3752" type="curve" smooth="yes"/>
      <point x="6144" y="3752"/>
      <point x="6272" y="3240"/>
      <point x="6272" y="2752" type="curve" smooth="yes"/>
      <point x="6272" y="1872"/>
      <point x="5712" y="-80"/>
      <point x="4232" y="-80" type="curve" smooth="yes"/>
      <point x="3520" y="-80"/>
      <point x="2816" y="400"/>
      <point x="3240" y="2000" type="curve"/>
    </contour>
  </outline>
</glyph>
<glyph name="x" format="2">
  <advance width="2116"/>
  <unicode hex="0078"/>
  <outline>
    <contour>
      <point x="1060" y="988" type="line"/>
      <point x="1306" y="1390"/>
      <point x="1502" y="1926"/>
      <point x="1826" y="1926" type="curve" smooth="yes"/>
      <point x="2076" y="1926"/>
      <point x="2158" y="1746"/>
      <point x="2158" y="1614" type="curve" smooth="yes"/>
      <point x="2158" y="1466"/>
      <point x="2078" y="1368"/>
      <point x="1922" y="1368" type="curve" smooth="yes"/>
      <point x="1758" y="1368"/>
      <point x="1696" y="1500"/>
      <point x="1696" y="1602" type="curve" smooth="yes"/>
      <point x="1696" y="1712"/>
      <point x="1784" y="1826"/>
      <point x="1916" y="1826" type="curve" smooth="yes"/>
      <point x="2034" y="1826"/>
      <point x="2110" y="1766"/>
      <point x="2142" y="1672" type="curve"/>
      <point x="2130" y="1774"/>
      <point x="2038" y="1916"/>
      <point x="1830" y="1916" type="curve" smooth="yes"/>
      <point x="1506" y="1916"/>
      <point x="1312" y="1378"/>
      <point x="1074" y="984" type="curve"/>
    </contour>
    <contour>
      <point x="1106" y="1138" type="line"/>
      <point x="770" y="572"/>
      <point x="512" y="-40"/>
      <point x="188" y="-40" type="curve" smooth="yes"/>
      <point x="-62" y="-40"/>
      <point x="-144" y="138"/>
      <point x="-144" y="270" type="curve" smooth="yes"/>
      <point x="-144" y="418"/>
      <point x="-62" y="516"/>
      <point x="94" y="516" type="curve" smooth="yes"/>
      <point x="258" y="516"/>
      <point x="320" y="384"/>
      <point x="320" y="282" type="curve" smooth="yes"/>
      <point x="320" y="172"/>
      <point x="234" y="58"/>
      <point x="90" y="58" type="curve" smooth="yes"/>
      <point x="-36" y="58"/>
      <point x="-116" y="144"/>
      <point x="-136" y="234" type="curve"/>
      <point x="-108" y="50"/>
      <point x="24" y="-32"/>
      <point x="188" y="-32" type="curve" smooth="yes"/>
      <point x="504" y="-32"/>
      <point x="774" y="590"/>
      <point x="1102" y="1142" type="curve"/>
    </contour>
    <contour>
      <point x="1950" y="446" type="line"/>
      <point x="1814" y="78"/>
      <point x="1630" y="-40"/>
      <point x="1418" y="-40" type="curve" smooth="yes"/>
      <point x="1184" y="-40"/>
      <point x="1058" y="104"/>
      <point x="1004" y="300" type="curve" smooth="yes"/>
      <point x="910" y="652"/>
      <point x="712" y="1492"/>
      <point x="606" y="1786" type="curve" smooth="yes"/>
      <point x="590" y="1832"/>
      <point x="570" y="1884"/>
      <point x="496" y="1884" type="curve" smooth="yes"/>
      <point x="370" y="1884"/>
      <point x="220" y="1700"/>
      <point x="122" y="1430" type="curve"/>
      <point x="114" y="1430" type="line"/>
      <point x="250" y="1798"/>
      <point x="406" y="1934"/>
      <point x="660" y="1934" type="curve" smooth="yes"/>
      <point x="894" y="1934"/>
      <point x="1002" y="1790"/>
      <point x="1056" y="1594" type="curve" smooth="yes"/>
      <point x="1154" y="1226"/>
      <point x="1314" y="516"/>
      <point x="1458" y="118" type="curve" smooth="yes"/>
      <point x="1474" y="72"/>
      <point x="1528" y="20"/>
      <point x="1582" y="20" type="curve" smooth="yes"/>
      <point x="1676" y="20"/>
      <point x="1824" y="130"/>
      <point x="1942" y="446" type="curve"/>
    </contour>
  </outline>
</glyph>
<glyph name="y" format="2">
  <advance width="4488"/>
  <unicode hex="0079"/>
  <outline>
    <contour>
      <point x="2608" y="-472" type="line"/>
      <point x="2024" y="536"/>
      <point x="1440" y="2896"/>
      <point x="1224" y="3472" type="curve" smooth="yes"/>
      <point x="1192" y="3560"/>
      <point x="1152" y="3664"/>
      <point x="1008" y="3664" type="curve" smooth="yes"/>
      <point x="744" y="3664"/>
      <point x="440" y="3256"/>
      <point x="280" y="2768" type="curve"/>
      <point x="264" y="2776" type="line"/>
      <point x="528" y="3496"/>
      <point x="832" y="3760"/>
      <point x="1328" y="3760" type="curve" smooth="yes"/>
      <point x="1784" y="3760"/>
      <point x="2000" y="3472"/>
      <point x="2112" y="3088" type="curve" smooth="yes"/>
      <point x="2328" y="2368"/>
      <point x="2616" y="1016"/>
      <point x="3136" y="240" type="curve"/>
    </contour>
    <contour>
      <point x="480" y="-2080" type="curve" smooth="yes"/>
      <point x="-56" y="-2080"/>
      <point x="-400" y="-1728"/>
      <point x="-400" y="-1208" type="curve" smooth="yes"/>
      <point x="-400" y="-944"/>
      <point x="-208" y="-680"/>
      <point x="96" y="-680" type="curve" smooth="yes"/>
      <point x="296" y="-680"/>
      <point x="544" y="-808"/>
      <point x="544" y="-1112" type="curve" smooth="yes"/>
      <point x="544" y="-1376"/>
      <point x="344" y="-1544"/>
      <point x="104" y="-1544" type="curve" smooth="yes"/>
      <point x="-152" y="-1544"/>
      <point x="-352" y="-1400"/>
      <point x="-384" y="-1208" type="curve"/>
      <point x="-384" y="-1736"/>
      <point x="-24" y="-2064"/>
      <point x="480" y="-2064" type="curve" smooth="yes"/>
      <point x="1952" y="-2064"/>
      <point x="4392" y="1896"/>
      <point x="4392" y="2928" type="curve" smooth="yes"/>
      <point x="4392" y="3200"/>
      <point x="4304" y="3424"/>
      <point x="4208" y="3544" type="curve"/>
      <point x="4344" y="3040"/>
      <point x="3992" y="2848"/>
      <point x="3784" y="2848" type="curve" smooth="yes"/>
      <point x="3464" y="2848"/>
      <point x="3280" y="3104"/>
      <point x="3280" y="3304" type="curve" smooth="yes"/>
      <point x="3280" y="3544"/>
      <point x="3480" y="3760"/>
      <point x="3776" y="3760" type="curve" smooth="yes"/>
      <point x="4264" y="3760"/>
      <point x="4408" y="3256"/>
      <point x="4408" y="2928" type="curve" smooth="yes"/>
      <point x="4408" y="1888"/>
      <point x="1960" y="-2080"/>
    </contour>
  </outline>
</glyph>
<glyph name="z" format="2">
  <advance width="1580"/>
  <unicode hex="007A"/>
  <outline>
    <contour>
      <point x="90" y="1186" type="line"/>
      <point x="262" y="1924" type="line"/>
      <point x="484" y="1802"/>
      <point x="730" y="1764"/>
      <point x="918" y="1764" type="curve" smooth="yes"/>
      <point x="1114" y="1764"/>
      <point x="1482" y="1792"/>
      <point x="1614" y="1924" type="curve"/>
      <point x="1622" y="1916" type="line"/>
      <point x="1318" y="1630"/>
      <point x="998" y="1454"/>
      <point x="712" y="1454" type="curve" smooth="yes"/>
      <point x="532" y="1454"/>
      <point x="310" y="1528"/>
      <point x="204" y="1630" type="curve"/>
      <point x="98" y="1186" type="line"/>
    </contour>
    <contour>
      <point x="-188" y="-40" type="line"/>
      <point x="-196" y="-36" type="line"/>
      <point x="1614" y="1920" type="line"/>
      <point x="1622" y="1916" type="line"/>
    </contour>
    <contour>
      <point x="1504" y="656" type="curve"/>
      <point x="1488" y="562"/>
      <point x="1404" y="476"/>
      <point x="1286" y="476" type="curve" smooth="yes"/>
      <point x="1180" y="476"/>
      <point x="1074" y="558"/>
      <point x="1074" y="680" type="curve" smooth="yes"/>
      <point x="1074" y="824"/>
      <point x="1184" y="888"/>
      <point x="1286" y="888" type="curve" smooth="yes"/>
      <point x="1408" y="888"/>
      <point x="1512" y="824"/>
      <point x="1512" y="656" type="curve" smooth="yes"/>
      <point x="1512" y="452"/>
      <point x="1286" y="-40"/>
      <point x="950" y="-40" type="curve" smooth="yes"/>
      <point x="700" y="-40"/>
      <point x="606" y="160"/>
      <point x="336" y="160" type="curve" smooth="yes"/>
      <point x="140" y="160"/>
      <point x="-56" y="92"/>
      <point x="-188" y="-40" type="curve"/>
      <point x="-192" y="-36" type="line"/>
      <point x="70" y="210"/>
      <point x="378" y="390"/>
      <point x="664" y="390" type="curve" smooth="yes"/>
      <point x="886" y="390"/>
      <point x="974" y="212"/>
      <point x="1208" y="212" type="curve" smooth="yes"/>
      <point x="1412" y="212"/>
      <point x="1504" y="542"/>
    </contour>
  </outline>
</glyph>
<glyph name="braceleft" format="2">
  <advance width="272"/>
  <unicode hex="007B"/>
  <outline>
    <contour>
      <point x="382" y="780" type="curve"/>
      <point x="382" y="778" type="line"/>
      <point x="290" y="778"/>
      <point x="245" y="700"/>
      <point x="245" y="617" type="curve" smooth="yes"/>
      <point x="245" y="561"/>
      <point x="254" y="531"/>
      <point x="254" y="451" type="curve" smooth="yes"/>
      <point x="254" y="368"/>
      <point x="159" y="325"/>
      <point x="85" y="315" type="curve"/>
      <point x="85" y="317" type="line"/>
      <point x="115" y="327"/>
      <point x="170" y="356"/>
      <point x="170" y="407" type="curve" smooth="yes"/>
      <point x="170" y="460"/>
      <point x="152" y="484"/>
      <point x="152" y="571" type="curve" smooth="yes"/>
      <point x="152" y="690"/>
      <point x="217" y="780"/>
    </contour>
    <contour>
      <point x="172" y="-150" type="line"/>
      <point x="47" y="-150"/>
      <point x="5" y="-119"/>
      <point x="5" y="-40" type="curve" smooth="yes"/>
      <point x="5" y="77"/>
      <point x="135" y="182"/>
      <point x="135" y="245" type="curve" smooth="yes"/>
      <point x="135" y="286"/>
      <point x="115" y="304"/>
      <point x="85" y="314" type="curve"/>
      <point x="85" y="316" type="line"/>
      <point x="159" y="306"/>
      <point x="192" y="283"/>
      <point x="192" y="220" type="curve" smooth="yes"/>
      <point x="192" y="120"/>
      <point x="98" y="30"/>
      <point x="98" y="-46" type="curve" smooth="yes"/>
      <point x="98" y="-99"/>
      <point x="110" y="-148"/>
      <point x="172" y="-148" type="curve"/>
    </contour>
  </outline>
</glyph>
<glyph name="cent" format="2">
  <advance width="1900"/>
  <unicode hex="00A2"/>
  <outline>
    <contour>
      <point x="1356" y="2274" type="line"/>
      <point x="660" y="-348" type="line"/>
      <point x="652" y="-348" type="line"/>
      <point x="1348" y="2274" type="line"/>
    </contour>
    <component base="c"/>
  </outline>
</glyph>
<glyph name="section" format="2">
  <advance width="1940"/>
  <unicode hex="00A7"/>
  <outline>
    <contour>
      <point x="824" y="2596" type="curve" smooth="yes"/>
      <point x="824" y="2162"/>
      <point x="1876" y="2264"/>
      <point x="1876" y="1638" type="curve" smooth="yes"/>
      <point x="1876" y="1302"/>
      <point x="1536" y="1188"/>
      <point x="1314" y="1040" type="curve"/>
      <point x="1306" y="1040" type="line"/>
      <point x="1446" y="1130"/>
      <point x="1564" y="1282"/>
      <point x="1564" y="1446" type="curve" smooth="yes"/>
      <point x="1564" y="1900"/>
      <point x="586" y="1746"/>
      <point x="586" y="2450" type="curve" smooth="yes"/>
      <point x="586" y="2876"/>
      <point x="994" y="3112"/>
      <point x="1384" y="3112" type="curve" smooth="yes"/>
      <point x="1786" y="3112"/>
      <point x="2016" y="2834"/>
      <point x="2016" y="2564" type="curve" smooth="yes"/>
      <point x="2016" y="2314"/>
      <point x="1914" y="2212"/>
      <point x="1770" y="2212" type="curve" smooth="yes"/>
      <point x="1648" y="2212"/>
      <point x="1548" y="2294"/>
      <point x="1548" y="2442" type="curve" smooth="yes"/>
      <point x="1548" y="2574"/>
      <point x="1664" y="2666"/>
      <point x="1782" y="2666" type="curve" smooth="yes"/>
      <point x="1908" y="2666"/>
      <point x="1992" y="2576"/>
      <point x="2008" y="2548" type="curve"/>
      <point x="2012" y="2806"/>
      <point x="1818" y="3100"/>
      <point x="1384" y="3100" type="curve" smooth="yes"/>
      <point x="1084" y="3100"/>
      <point x="824" y="2870"/>
    </contour>
    <contour>
      <point x="1638" y="664" type="curve" smooth="yes"/>
      <point x="1638" y="238"/>
      <point x="1230" y="-40"/>
      <point x="758" y="-40" type="curve" smooth="yes"/>
      <point x="398" y="-40"/>
      <point x="46" y="142"/>
      <point x="46" y="536" type="curve" smooth="yes"/>
      <point x="46" y="704"/>
      <point x="168" y="872"/>
      <point x="332" y="872" type="curve" smooth="yes"/>
      <point x="454" y="872"/>
      <point x="552" y="792"/>
      <point x="552" y="644" type="curve" smooth="yes"/>
      <point x="552" y="512"/>
      <point x="438" y="418"/>
      <point x="278" y="418" type="curve" smooth="yes"/>
      <point x="152" y="418"/>
      <point x="70" y="484"/>
      <point x="54" y="570" type="curve"/>
      <point x="42" y="152"/>
      <point x="382" y="-28"/>
      <point x="758" y="-28" type="curve" smooth="yes"/>
      <point x="1180" y="-28"/>
      <point x="1360" y="304"/>
      <point x="1360" y="496" type="curve" smooth="yes"/>
      <point x="1360" y="972"/>
      <point x="282" y="828"/>
      <point x="282" y="1414" type="curve" smooth="yes"/>
      <point x="282" y="1708"/>
      <point x="606" y="1942"/>
      <point x="786" y="2048" type="curve"/>
      <point x="794" y="2048" type="line"/>
      <point x="736" y="1998"/>
      <point x="664" y="1832"/>
      <point x="664" y="1668" type="curve" smooth="yes"/>
      <point x="664" y="1132"/>
      <point x="1638" y="1410"/>
    </contour>
  </outline>
</glyph>
<glyph name="guillemotleft" format="2">
  <advance width="5560"/>
  <unicode hex="00AB"/>
  <outline>
    <contour>
      <point x="3848" y="3104" type="line"/>
      <point x="5088" y="1168" type="line"/>
      <point x="5080" y="1160" type="line"/>
      <point x="2840" y="3000" type="line"/>
      <point x="2840" y="3200" type="line"/>
      <point x="5960" y="5040" type="line"/>
      <point x="5968" y="5032" type="line"/>
    </contour>
    <contour>
      <point x="1608" y="3104" type="line"/>
      <point x="2848" y="1168" type="line"/>
      <point x="2840" y="1160" type="line"/>
      <point x="600" y="3000" type="line"/>
      <point x="600" y="3200" type="line"/>
      <point x="3720" y="5040" type="line"/>
      <point x="3728" y="5032" type="line"/>
    </contour>
  </outline>
</glyph>
<glyph name="degree" format="2">
  <advance width="1310"/>
  <unicode hex="00B0"/>
  <outline>
    <contour>
      <point x="794" y="2786" type="curve" smooth="yes"/>
      <point x="794" y="3056"/>
      <point x="1016" y="3276"/>
      <point x="1286" y="3276" type="curve" smooth="yes"/>
      <point x="1556" y="3276"/>
      <point x="1778" y="3056"/>
      <point x="1778" y="2786" type="curve" smooth="yes"/>
      <point x="1778" y="2516"/>
      <point x="1556" y="2294"/>
      <point x="1286" y="2294" type="curve" smooth="yes"/>
      <point x="1016" y="2294"/>
      <point x="794" y="2516"/>
    </contour>
    <contour>
      <point x="876" y="2786" type="curve" smooth="yes"/>
      <point x="876" y="2552"/>
      <point x="1052" y="2376"/>
      <point x="1286" y="2376" type="curve" smooth="yes"/>
      <point x="1520" y="2376"/>
      <point x="1696" y="2552"/>
      <point x="1696" y="2786" type="curve" smooth="yes"/>
      <point x="1696" y="3020"/>
      <point x="1520" y="3194"/>
      <point x="1286" y="3194" type="curve" smooth="yes"/>
      <point x="1052" y="3194"/>
      <point x="876" y="3020"/>
    </contour>
  </outline>
</glyph>
<glyph name="acute" format="2">
  <advance width="3160"/>
  <unicode hex="00B4"/>
  <outline>
    <contour>
      <point x="3800" y="5768" type="curve" smooth="yes"/>
      <point x="1840" y="5752" type="line"/>
      <point x="1832" y="5768" type="line"/>
      <point x="3720" y="6304" type="line" smooth="yes"/>
      <point x="3944" y="6368"/>
      <point x="4080" y="6192"/>
      <point x="4080" y="6040" type="curve" smooth="yes"/>
      <point x="4080" y="5888"/>
      <point x="3952" y="5768"/>
    </contour>
  </outline>
</glyph>
<glyph name="cedilla" format="2">
  <advance width="2252"/>
  <unicode hex="00B8"/>
  <outline>
    <contour>
      <point x="970" y="-324" type="line"/>
      <point x="1462" y="168" type="line"/>
      <point x="1470" y="168" type="line"/>
      <point x="978" y="-324" type="line"/>
    </contour>
    <contour>
      <point x="970" y="-324" type="curve"/>
      <point x="1142" y="-160" type="line"/>
      <point x="1474" y="-160"/>
      <point x="1696" y="-246"/>
      <point x="1696" y="-450" type="curve" smooth="yes"/>
      <point x="1696" y="-696"/>
      <point x="1360" y="-902"/>
      <point x="946" y="-902" type="curve"/>
      <point x="946" y="-892" type="line"/>
      <point x="1188" y="-892"/>
      <point x="1388" y="-754"/>
      <point x="1388" y="-532" type="curve" smooth="yes"/>
      <point x="1388" y="-356"/>
      <point x="1236" y="-324"/>
    </contour>
  </outline>
</glyph>
<glyph name="AE" format="2">
  <advance width="8000"/>
  <unicode hex="00C6"/>
  <outline>
    <contour>
      <point x="5432" y="6000" type="line"/>
      <point x="8752" y="6000" type="line"/>
      <point x="8368" y="4360" type="line"/>
      <point x="8352" y="4360" type="line"/>
      <point x="8552" y="5216"/>
      <point x="8288" y="5984"/>
      <point x="7352" y="5984" type="curve" smooth="yes"/>
      <point x="5432" y="5984" type="line"/>
    </contour>
    <contour>
      <point x="5824" y="3096" type="curve" smooth="yes"/>
      <point x="5256" y="3096" type="line"/>
      <point x="5256" y="3112" type="line"/>
      <point x="5824" y="3112" type="line" smooth="yes"/>
      <point x="6280" y="3112"/>
      <point x="6776" y="3408"/>
      <point x="6896" y="3944" type="curve"/>
      <point x="6912" y="3944" type="line"/>
      <point x="6520" y="2224" type="line"/>
      <point x="6504" y="2224" type="line"/>
      <point x="6624" y="2760"/>
      <point x="6280" y="3096"/>
    </contour>
    <contour>
      <point x="7440" y="0" type="line"/>
      <point x="3200" y="0" type="line"/>
      <point x="3200" y="16" type="line"/>
      <point x="5960" y="16" type="line" smooth="yes"/>
      <point x="7056" y="16"/>
      <point x="7608" y="784"/>
      <point x="7840" y="1800" type="curve"/>
      <point x="7856" y="1800" type="line"/>
    </contour>
    <contour>
      <point x="5272" y="6000" type="line"/>
      <point x="6032" y="6000" type="line"/>
      <point x="4640" y="0" type="line"/>
      <point x="3880" y="0" type="line"/>
    </contour>
    <contour>
      <point x="2120" y="1968" type="line"/>
      <point x="4440" y="1968" type="line"/>
      <point x="4440" y="1952" type="line"/>
      <point x="2120" y="1952" type="line"/>
    </contour>
    <contour>
      <point x="5256" y="6000" type="line"/>
      <point x="5280" y="6000" type="line"/>
      <point x="600" y="0" type="line"/>
      <point x="576" y="0" type="line"/>
    </contour>
    <contour>
      <point x="-200" y="16" type="line"/>
      <point x="1560" y="16" type="line"/>
      <point x="1560" y="0" type="line"/>
      <point x="-200" y="0" type="line"/>
    </contour>
  </outline>
</glyph>
<glyph name="eth" format="2">
  <advance width="560"/>
  <unicode hex="00F0"/>
  <outline>
    <contour>
      <point x="210" y="630" type="line"/>
      <point x="630" y="630" type="line"/>
      <point x="630" y="628" type="line"/>
      <point x="210" y="628" type="line"/>
    </contour>
    <contour>
      <point x="557" y="400" type="curve" smooth="yes"/>
      <point x="557" y="190"/>
      <point x="407" y="-10"/>
      <point x="236" y="-10" type="curve" smooth="yes"/>
      <point x="115" y="-10"/>
      <point x="40" y="40"/>
      <point x="40" y="170" type="curve" smooth="yes"/>
      <point x="40" y="380"/>
      <point x="208" y="490"/>
      <point x="329" y="490" type="curve" smooth="yes"/>
      <point x="430" y="490"/>
      <point x="448" y="412"/>
      <point x="448" y="295" type="curve"/>
      <point x="444" y="330" type="line"/>
      <point x="444" y="400"/>
      <point x="424" y="483"/>
      <point x="351" y="483" type="curve" smooth="yes"/>
      <point x="242" y="483"/>
      <point x="140" y="324"/>
      <point x="140" y="150" type="curve" smooth="yes"/>
      <point x="140" y="76"/>
      <point x="157" y="-8"/>
      <point x="236" y="-8" type="curve" smooth="yes"/>
      <point x="345" y="-8"/>
      <point x="444" y="216"/>
      <point x="444" y="330" type="curve"/>
      <point x="444" y="330" type="line"/>
      <point x="444" y="532"/>
      <point x="459" y="758"/>
      <point x="235" y="758" type="curve"/>
      <point x="235" y="760" type="line"/>
      <point x="458" y="760"/>
      <point x="557" y="593"/>
    </contour>
  </outline>
</glyph>
<glyph name="thorn" format="2">
  <advance width="4584"/>
  <unicode hex="00FE"/>
  <outline>
    <contour>
      <point x="1424" y="1168" type="curve" smooth="yes"/>
      <point x="1424" y="584"/>
      <point x="1600" y="32"/>
      <point x="2008" y="32" type="curve" smooth="yes"/>
      <point x="2760" y="32"/>
      <point x="3504" y="1488"/>
      <point x="3504" y="2560" type="curve" smooth="yes"/>
      <point x="3504" y="3232"/>
      <point x="3288" y="3688"/>
      <point x="2880" y="3688" type="curve" smooth="yes"/>
      <point x="1992" y="3688"/>
      <point x="1424" y="2080"/>
    </contour>
    <contour>
      <point x="1408" y="1168" type="curve" smooth="yes"/>
      <point x="1408" y="2032"/>
      <point x="1912" y="3760"/>
      <point x="3040" y="3760" type="curve" smooth="yes"/>
      <point x="3592" y="3760"/>
      <point x="4336" y="3440"/>
      <point x="4336" y="2400" type="curve" smooth="yes"/>
      <point x="4336" y="800"/>
      <point x="3056" y="-80"/>
      <point x="2264" y="-80" type="curve" smooth="yes"/>
      <point x="1656" y="-80"/>
      <point x="1408" y="432"/>
    </contour>
    <contour>
      <point x="-600" y="-1984" type="line"/>
      <point x="1200" y="-1984" type="line"/>
      <point x="1200" y="-2000" type="line"/>
      <point x="-600" y="-2000" type="line"/>
    </contour>
    <contour>
      <point x="1744" y="5984" type="line"/>
      <point x="1176" y="5984" type="line"/>
      <point x="1176" y="6000" type="line"/>
      <point x="2472" y="6000" type="line"/>
      <point x="1640" y="2352" type="line"/>
      <point x="1488" y="1800" type="line"/>
      <point x="1416" y="1320" type="line"/>
      <point x="640" y="-2000" type="line"/>
      <point x="-80" y="-2000" type="line"/>
    </contour>
  </outline>
</glyph>
<glyph name="dotlessi" format="2">
  <advance width="319"/>
  <unicode hex="0131"/>
  <outline>
    <contour>
      <point x="299" y="163" type="line"/>
      <point x="261" y="63"/>
      <point x="202" y="-10"/>
      <point x="121" y="-10" type="curve" smooth="yes"/>
      <point x="74" y="-10"/>
      <point x="50" y="13"/>
      <point x="50" y="63" type="curve" smooth="yes"/>
      <point x="50" y="68"/>
      <point x="51" y="79"/>
      <point x="52" y="85" type="curve" smooth="yes"/>
      <point x="136" y="458" type="line"/>
      <point x="65" y="458" type="line"/>
      <point x="65" y="460" type="line"/>
      <point x="227" y="460" type="line"/>
      <point x="128" y="36" type="line" smooth="yes"/>
      <point x="127" y="30"/>
      <point x="126" y="23"/>
      <point x="126" y="18" type="curve" smooth="yes"/>
      <point x="126" y="7"/>
      <point x="131" y="-1"/>
      <point x="144" y="-1" type="curve" smooth="yes"/>
      <point x="205" y="-1"/>
      <point x="262" y="68"/>
      <point x="298" y="164" type="curve"/>
    </contour>
  </outline>
</glyph>
<glyph name="lslash" format="2">
  <advance width="309"/>
  <unicode hex="0142"/>
  <outline>
    <contour>
      <point x="35" y="400" type="line"/>
      <point x="320" y="580" type="line"/>
      <point x="320" y="578" type="line"/>
      <point x="35" y="398" type="line"/>
    </contour>
    <component base="l"/>
  </outline>
</glyph>
<glyph name="uni0237" format="2">
  <advance width="262"/>
  <unicode hex="0237"/>
  <outline>
    <contour>
      <point x="-173" y="-160" type="curve"/>
      <point x="-170" y="-208"/>
      <point x="-129" y="-258"/>
      <point x="-77" y="-258" type="curve" smooth="yes"/>
      <point x="13" y="-258"/>
      <point x="17" y="-100"/>
      <point x="45" y="20" type="curve" smooth="yes"/>
      <point x="147" y="458" type="line"/>
      <point x="53" y="458" type="line"/>
      <point x="53" y="460" type="line"/>
      <point x="233" y="460" type="line"/>
      <point x="135" y="-12" type="line" smooth="yes"/>
      <point x="109" y="-137"/>
      <point x="58" y="-260"/>
      <point x="-72" y="-260" type="curve" smooth="yes"/>
      <point x="-143" y="-260"/>
      <point x="-175" y="-193"/>
      <point x="-175" y="-156" type="curve" smooth="yes"/>
      <point x="-175" y="-115"/>
      <point x="-143" y="-89"/>
      <point x="-113" y="-89" type="curve" smooth="yes"/>
      <point x="-88" y="-89"/>
      <point x="-62" y="-106"/>
      <point x="-62" y="-143" type="curve" smooth="yes"/>
      <point x="-62" y="-180"/>
      <point x="-93" y="-199"/>
      <point x="-122" y="-199" type="curve" smooth="yes"/>
      <point x="-150" y="-199"/>
      <point x="-167" y="-179"/>
    </contour>
  </outline>
</glyph>
<glyph name="circumflex" format="2">
  <advance width="3080"/>
  <unicode hex="02C6"/>
  <outline>
    <contour>
      <point x="2576" y="5800" type="line"/>
      <point x="1288" y="5272" type="line"/>
      <point x="1280" y="5280" type="line"/>
      <point x="2336" y="6160" type="line"/>
      <point x="2856" y="6160" type="line"/>
      <point x="3560" y="5280" type="line"/>
      <point x="3552" y="5272" type="line"/>
    </contour>
  </outline>
</glyph>
<glyph name="tilde" format="2">
  <advance width="1834"/>
  <unicode hex="02DC"/>
  <outline>
    <contour>
      <point x="954" y="2740" type="curve" smooth="yes"/>
      <point x="778" y="2740"/>
      <point x="684" y="2670"/>
      <point x="602" y="2458" type="curve"/>
      <point x="594" y="2458" type="line"/>
      <point x="676" y="2806"/>
      <point x="902" y="2978"/>
      <point x="1102" y="2978" type="curve" smooth="yes"/>
      <point x="1388" y="2978"/>
      <point x="1552" y="2654"/>
      <point x="1782" y="2654" type="curve" smooth="yes"/>
      <point x="1958" y="2654"/>
      <point x="2052" y="2724"/>
      <point x="2134" y="2936" type="curve"/>
      <point x="2142" y="2936" type="line"/>
      <point x="2060" y="2546"/>
      <point x="1876" y="2416"/>
      <point x="1676" y="2416" type="curve" smooth="yes"/>
      <point x="1360" y="2416"/>
      <point x="1212" y="2740"/>
    </contour>
  </outline>
</glyph>
<glyph name="pi" format="2">
  <advance width="581"/>
  <unicode hex="03C0"/>
  <outline>
    <contour>
      <point x="74" y="-10" type="curve" smooth="yes"/>
      <point x="33" y="-10"/>
      <point x="15" y="13"/>
      <point x="15" y="38" type="curve" smooth="yes"/>
      <point x="15" y="106"/>
      <point x="130" y="96"/>
      <point x="180" y="279" type="curve" smooth="yes"/>
      <point x="227" y="450" type="line"/>
      <point x="283" y="450" type="line"/>
      <point x="228" y="243" type="line" smooth="yes"/>
      <point x="189" y="95"/>
      <point x="142" y="-10"/>
    </contour>
    <contour>
      <point x="526" y="103" type="line"/>
      <point x="503" y="33"/>
      <point x="461" y="-10"/>
      <point x="398" y="-10" type="curve" smooth="yes"/>
      <point x="361" y="-10"/>
      <point x="315" y="18"/>
      <point x="331" y="83" type="curve" smooth="yes"/>
      <point x="416" y="420" type="line"/>
      <point x="506" y="420" type="line"/>
      <point x="419" y="91" type="line" smooth="yes"/>
      <point x="409" y="54"/>
      <point x="425" y="45"/>
      <point x="449" y="45" type="curve" smooth="yes"/>
      <point x="487" y="45"/>
      <point x="506" y="70"/>
      <point x="525" y="104" type="curve"/>
    </contour>
    <contour>
      <point x="596" y="460" type="line"/>
      <point x="566" y="370" type="line"/>
      <point x="88" y="370" type="line"/>
      <point x="70" y="295" type="line"/>
      <point x="68" y="295" type="line"/>
      <point x="107" y="460" type="line"/>
    </contour>
  </outline>
</glyph>
<glyph name="perthousand" format="2">
  <advance width="1470"/>
  <unicode hex="2030"/>
  <outline>
    <contour>
      <point x="1200" y="-10" type="curve" smooth="yes"/>
      <point x="1107" y="-10"/>
      <point x="1050" y="37"/>
      <point x="1050" y="140" type="curve" smooth="yes"/>
      <point x="1050" y="303"/>
      <point x="1157" y="430"/>
      <point x="1290" y="430" type="curve" smooth="yes"/>
      <point x="1383" y="430"/>
      <point x="1440" y="383"/>
      <point x="1440" y="280" type="curve" smooth="yes"/>
      <point x="1440" y="117"/>
      <point x="1333" y="-10"/>
    </contour>
    <contour>
      <point x="1290" y="428" type="curve" smooth="yes"/>
      <point x="1216" y="428"/>
      <point x="1150" y="252"/>
      <point x="1150" y="120" type="curve" smooth="yes"/>
      <point x="1150" y="48"/>
      <point x="1166" y="-8"/>
      <point x="1200" y="-8" type="curve" smooth="yes"/>
      <point x="1274" y="-8"/>
      <point x="1340" y="150"/>
      <point x="1340" y="282" type="curve" smooth="yes"/>
      <point x="1340" y="354"/>
      <point x="1324" y="428"/>
    </contour>
    <contour>
      <point x="730" y="-10" type="curve" smooth="yes"/>
      <point x="637" y="-10"/>
      <point x="580" y="37"/>
      <point x="580" y="140" type="curve" smooth="yes"/>
      <point x="580" y="303"/>
      <point x="687" y="430"/>
      <point x="820" y="430" type="curve" smooth="yes"/>
      <point x="913" y="430"/>
      <point x="970" y="383"/>
      <point x="970" y="280" type="curve" smooth="yes"/>
      <point x="970" y="117"/>
      <point x="863" y="-10"/>
    </contour>
    <contour>
      <point x="820" y="428" type="curve" smooth="yes"/>
      <point x="746" y="428"/>
      <point x="680" y="252"/>
      <point x="680" y="120" type="curve" smooth="yes"/>
      <point x="680" y="48"/>
      <point x="696" y="-8"/>
      <point x="730" y="-8" type="curve" smooth="yes"/>
      <point x="804" y="-8"/>
      <point x="870" y="150"/>
      <point x="870" y="282" type="curve" smooth="yes"/>
      <point x="870" y="354"/>
      <point x="854" y="428"/>
    </contour>
    <contour>
      <point x="893" y="750" type="line"/>
      <point x="895" y="750" type="line"/>
      <point x="195" y="0" type="line"/>
      <point x="193" y="0" type="line"/>
    </contour>
    <contour>
      <point x="275" y="320" type="curve" smooth="yes"/>
      <point x="182" y="320"/>
      <point x="125" y="367"/>
      <point x="125" y="470" type="curve" smooth="yes"/>
      <point x="125" y="633"/>
      <point x="232" y="760"/>
      <point x="365" y="760" type="curve" smooth="yes"/>
      <point x="458" y="760"/>
      <point x="515" y="713"/>
      <point x="515" y="610" type="curve" smooth="yes"/>
      <point x="515" y="447"/>
      <point x="408" y="320"/>
    </contour>
    <contour>
      <point x="365" y="758" type="curve" smooth="yes"/>
      <point x="291" y="758"/>
      <point x="225" y="582"/>
      <point x="225" y="450" type="curve" smooth="yes"/>
      <point x="225" y="378"/>
      <point x="241" y="322"/>
      <point x="275" y="322" type="curve" smooth="yes"/>
      <point x="349" y="322"/>
      <point x="415" y="498"/>
      <point x="415" y="630" type="curve" smooth="yes"/>
      <point x="415" y="702"/>
      <point x="399" y="758"/>
    </contour>
  </outline>
</glyph>
<glyph name="uni203D" format="2">
  <advance width="4480"/>
  <unicode hex="203D"/>
  <outline>
    <contour>
      <point x="3344" y="4232" type="curve" smooth="yes"/>
      <point x="3184" y="3384"/>
      <point x="2480" y="2864"/>
      <point x="2160" y="1664" type="curve"/>
      <point x="2144" y="1664" type="line"/>
      <point x="2384" y="2864"/>
      <point x="2400" y="3384"/>
      <point x="2400" y="3992" type="curve" smooth="yes"/>
      <point x="2400" y="4440"/>
      <point x="2520" y="4784"/>
      <point x="2912" y="4784" type="curve" smooth="yes"/>
      <point x="3192" y="4784"/>
      <point x="3408" y="4560"/>
    </contour>
    <contour>
      <point x="4032" y="4880" type="curve" smooth="yes"/>
      <point x="4032" y="5472"/>
      <point x="3720" y="6056"/>
      <point x="3008" y="6056" type="curve" smooth="yes"/>
      <point x="2016" y="6056"/>
      <point x="1336" y="5344"/>
      <point x="1312" y="4848" type="curve"/>
      <point x="1368" y="4936"/>
      <point x="1488" y="5120"/>
      <point x="1736" y="5120" type="curve" smooth="yes"/>
      <point x="1968" y="5120"/>
      <point x="2192" y="4960"/>
      <point x="2192" y="4680" type="curve" smooth="yes"/>
      <point x="2192" y="4360"/>
      <point x="1936" y="4232"/>
      <point x="1736" y="4232" type="curve" smooth="yes"/>
      <point x="1496" y="4232"/>
      <point x="1280" y="4400"/>
      <point x="1280" y="4728" type="curve" smooth="yes"/>
      <point x="1280" y="5384"/>
      <point x="2032" y="6080"/>
      <point x="3088" y="6080" type="curve" smooth="yes"/>
      <point x="3976" y="6080"/>
      <point x="4840" y="5680"/>
      <point x="4840" y="4720" type="curve" smooth="yes"/>
      <point x="4840" y="3600"/>
      <point x="3584" y="2680"/>
      <point x="2536" y="2680" type="curve"/>
      <point x="2536" y="2696" type="line"/>
      <point x="3232" y="2944"/>
      <point x="4032" y="3896"/>
    </contour>
    <component base="period" xOffset="1272"/>
  </outline>
</glyph>
<glyph name="Euro" format="2">
  <advance width="710"/>
  <unicode hex="20AC"/>
  <outline>
    <contour>
      <point x="753" y="631" type="curve"/>
      <point x="743" y="690"/>
      <point x="683" y="758"/>
      <point x="589" y="758" type="curve" smooth="yes"/>
      <point x="400" y="758"/>
      <point x="269" y="489"/>
      <point x="269" y="245" type="curve" smooth="yes"/>
      <point x="269" y="131"/>
      <point x="296" y="-6"/>
      <point x="405" y="-6" type="curve" smooth="yes"/>
      <point x="511" y="-6"/>
      <point x="616" y="82"/>
      <point x="651" y="178" type="curve"/>
      <point x="653" y="178" type="line"/>
      <point x="617" y="81"/>
      <point x="514" y="-10"/>
      <point x="393" y="-10" type="curve" smooth="yes"/>
      <point x="272" y="-10"/>
      <point x="155" y="75"/>
      <point x="155" y="275" type="curve" smooth="yes"/>
      <point x="155" y="535"/>
      <point x="358" y="760"/>
      <point x="579" y="760" type="curve" smooth="yes"/>
      <point x="701" y="760"/>
      <point x="755" y="668"/>
      <point x="755" y="616" type="curve" smooth="yes"/>
      <point x="755" y="575"/>
      <point x="728" y="554"/>
      <point x="698" y="554" type="curve" smooth="yes"/>
      <point x="673" y="554"/>
      <point x="641" y="570"/>
      <point x="641" y="610" type="curve" smooth="yes"/>
      <point x="641" y="645"/>
      <point x="674" y="665"/>
      <point x="703" y="665" type="curve" smooth="yes"/>
      <point x="731" y="665"/>
      <point x="749" y="642"/>
    </contour>
    <component base="equal" xOffset="-30" yOffset="-70"/>
  </outline>
</glyph>
<glyph name="uni2116" format="2">
  <advance width="4448"/>
  <unicode hex="2116"/>
  <outline>
    <contour>
      <point x="3294" y="1294" type="line"/>
      <point x="4276" y="1294" type="line"/>
      <point x="4272" y="1286" type="line"/>
      <point x="3290" y="1286" type="line"/>
    </contour>
    <contour>
      <point x="4194" y="3112" type="curve" smooth="yes"/>
      <point x="4534" y="3112"/>
      <point x="4740" y="2920"/>
      <point x="4740" y="2580" type="curve" smooth="yes"/>
      <point x="4740" y="1962"/>
      <point x="4300" y="1556"/>
      <point x="3838" y="1556" type="curve" smooth="yes"/>
      <point x="3498" y="1556"/>
      <point x="3294" y="1748"/>
      <point x="3294" y="2088" type="curve" smooth="yes"/>
      <point x="3294" y="2706"/>
      <point x="3732" y="3112"/>
    </contour>
    <contour>
      <point x="3616" y="1950" type="curve" smooth="yes"/>
      <point x="3616" y="1660"/>
      <point x="3694" y="1564"/>
      <point x="3854" y="1564" type="curve" smooth="yes"/>
      <point x="4154" y="1564"/>
      <point x="4416" y="2204"/>
      <point x="4416" y="2720" type="curve" smooth="yes"/>
      <point x="4416" y="3010"/>
      <point x="4338" y="3104"/>
      <point x="4178" y="3104" type="curve" smooth="yes"/>
      <point x="3878" y="3104"/>
      <point x="3616" y="2466"/>
    </contour>
    <component base="N" xOffset="106"/>
  </outline>
</glyph>
<glyph name="uniFB00" format="2">
  <advance width="616"/>
  <unicode hex="FB00"/>
  <outline>
    <contour>
      <point x="52" y="460" type="line"/>
      <point x="652" y="460" type="line"/>
      <point x="652" y="458" type="line"/>
      <point x="52" y="458" type="line"/>
    </contour>
    <contour>
      <point x="772" y="676" type="curve"/>
      <point x="768" y="710"/>
      <point x="735" y="758"/>
      <point x="663" y="758" type="curve" smooth="yes"/>
      <point x="593" y="758"/>
      <point x="544" y="662"/>
      <point x="522" y="540" type="curve" smooth="yes"/>
      <point x="432" y="38" type="line" smooth="yes"/>
      <point x="409" y="-88"/>
      <point x="324" y="-210"/>
      <point x="184" y="-210" type="curve" smooth="yes"/>
      <point x="93" y="-210"/>
      <point x="61" y="-153"/>
      <point x="61" y="-111" type="curve" smooth="yes"/>
      <point x="61" y="-70"/>
      <point x="88" y="-49"/>
      <point x="118" y="-49" type="curve" smooth="yes"/>
      <point x="143" y="-49"/>
      <point x="174" y="-63"/>
      <point x="174" y="-103" type="curve" smooth="yes"/>
      <point x="174" y="-143"/>
      <point x="143" y="-159"/>
      <point x="114" y="-159" type="curve" smooth="yes"/>
      <point x="94" y="-159"/>
      <point x="71" y="-145"/>
      <point x="65" y="-126" type="curve"/>
      <point x="69" y="-160"/>
      <point x="102" y="-208"/>
      <point x="184" y="-208" type="curve" smooth="yes"/>
      <point x="264" y="-208"/>
      <point x="313" y="-112"/>
      <point x="335" y="10" type="curve" smooth="yes"/>
      <point x="425" y="512" type="line" smooth="yes"/>
      <point x="448" y="638"/>
      <point x="533" y="760"/>
      <point x="663" y="760" type="curve" smooth="yes"/>
      <point x="744" y="760"/>
      <point x="776" y="703"/>
      <point x="776" y="661" type="curve" smooth="yes"/>
      <point x="776" y="620"/>
      <point x="749" y="599"/>
      <point x="719" y="599" type="curve" smooth="yes"/>
      <point x="694" y="599"/>
      <point x="663" y="613"/>
      <point x="663" y="653" type="curve" smooth="yes"/>
      <point x="663" y="693"/>
      <point x="694" y="709"/>
      <point x="723" y="709" type="curve" smooth="yes"/>
      <point x="743" y="709"/>
      <point x="766" y="694"/>
    </contour>
    <contour>
      <point x="501" y="626" type="curve"/>
      <point x="497" y="660"/>
      <point x="464" y="708"/>
      <point x="382" y="708" type="curve" smooth="yes"/>
      <point x="302" y="708"/>
      <point x="253" y="612"/>
      <point x="231" y="490" type="curve" smooth="yes"/>
      <point x="141" y="-12" type="line" smooth="yes"/>
      <point x="118" y="-138"/>
      <point x="33" y="-260"/>
      <point x="-97" y="-260" type="curve" smooth="yes"/>
      <point x="-178" y="-260"/>
      <point x="-210" y="-203"/>
      <point x="-210" y="-161" type="curve" smooth="yes"/>
      <point x="-210" y="-120"/>
      <point x="-183" y="-99"/>
      <point x="-153" y="-99" type="curve" smooth="yes"/>
      <point x="-128" y="-99"/>
      <point x="-97" y="-113"/>
      <point x="-97" y="-153" type="curve" smooth="yes"/>
      <point x="-97" y="-193"/>
      <point x="-128" y="-209"/>
      <point x="-157" y="-209" type="curve" smooth="yes"/>
      <point x="-177" y="-209"/>
      <point x="-200" y="-195"/>
      <point x="-206" y="-176" type="curve"/>
      <point x="-202" y="-210"/>
      <point x="-169" y="-258"/>
      <point x="-97" y="-258" type="curve" smooth="yes"/>
      <point x="-27" y="-258"/>
      <point x="22" y="-162"/>
      <point x="44" y="-40" type="curve" smooth="yes"/>
      <point x="134" y="462" type="line" smooth="yes"/>
      <point x="157" y="588"/>
      <point x="242" y="710"/>
      <point x="382" y="710" type="curve" smooth="yes"/>
      <point x="473" y="710"/>
      <point x="505" y="653"/>
      <point x="505" y="611" type="curve" smooth="yes"/>
      <point x="505" y="570"/>
      <point x="478" y="549"/>
      <point x="448" y="549" type="curve" smooth="yes"/>
      <point x="423" y="549"/>
      <point x="392" y="563"/>
      <point x="392" y="603" type="curve" smooth="yes"/>
      <point x="392" y="643"/>
      <point x="423" y="659"/>
      <point x="452" y="659" type="curve" smooth="yes"/>
      <point x="472" y="659"/>
      <point x="495" y="644"/>
    </contour>
  </outline>
</glyph>
<glyph name="uniFB01" format="2">
  <advance width="593"/>
  <unicode hex="FB01"/>
  <outline>
    <contour>
      <point x="573" y="163" type="line"/>
      <point x="535" y="63"/>
      <point x="476" y="-10"/>
      <point x="395" y="-10" type="curve" smooth="yes"/>
      <point x="348" y="-10"/>
      <point x="324" y="13"/>
      <point x="324" y="63" type="curve" smooth="yes"/>
      <point x="324" y="68"/>
      <point x="325" y="79"/>
      <point x="326" y="85" type="curve" smooth="yes"/>
      <point x="410" y="458" type="line"/>
      <point x="53" y="458" type="line"/>
      <point x="53" y="460" type="line"/>
      <point x="501" y="460" type="line"/>
      <point x="402" y="36" type="line" smooth="yes"/>
      <point x="401" y="30"/>
      <point x="400" y="23"/>
      <point x="400" y="18" type="curve" smooth="yes"/>
      <point x="400" y="7"/>
      <point x="405" y="-1"/>
      <point x="418" y="-1" type="curve" smooth="yes"/>
      <point x="479" y="-1"/>
      <point x="536" y="68"/>
      <point x="572" y="164" type="curve"/>
    </contour>
    <contour>
      <point x="532" y="676" type="curve"/>
      <point x="528" y="710"/>
      <point x="495" y="758"/>
      <point x="403" y="758" type="curve" smooth="yes"/>
      <point x="313" y="758"/>
      <point x="264" y="662"/>
      <point x="242" y="540" type="curve" smooth="yes"/>
      <point x="141" y="-12" type="line" smooth="yes"/>
      <point x="118" y="-138"/>
      <point x="33" y="-260"/>
      <point x="-97" y="-260" type="curve" smooth="yes"/>
      <point x="-178" y="-260"/>
      <point x="-210" y="-203"/>
      <point x="-210" y="-161" type="curve" smooth="yes"/>
      <point x="-210" y="-120"/>
      <point x="-183" y="-99"/>
      <point x="-153" y="-99" type="curve" smooth="yes"/>
      <point x="-128" y="-99"/>
      <point x="-97" y="-113"/>
      <point x="-97" y="-153" type="curve" smooth="yes"/>
      <point x="-97" y="-193"/>
      <point x="-128" y="-209"/>
      <point x="-157" y="-209" type="curve" smooth="yes"/>
      <point x="-177" y="-209"/>
      <point x="-200" y="-195"/>
      <point x="-206" y="-176" type="curve"/>
      <point x="-202" y="-210"/>
      <point x="-169" y="-258"/>
      <point x="-97" y="-258" type="curve" smooth="yes"/>
      <point x="-27" y="-258"/>
      <point x="22" y="-162"/>
      <point x="44" y="-40" type="curve" smooth="yes"/>
      <point x="145" y="512" type="line" smooth="yes"/>
      <point x="168" y="638"/>
      <point x="253" y="760"/>
      <point x="403" y="760" type="curve" smooth="yes"/>
      <point x="504" y="760"/>
      <point x="536" y="703"/>
      <point x="536" y="661" type="curve" smooth="yes"/>
      <point x="536" y="620"/>
      <point x="509" y="599"/>
      <point x="479" y="599" type="curve" smooth="yes"/>
      <point x="454" y="599"/>
      <point x="423" y="613"/>
      <point x="423" y="653" type="curve" smooth="yes"/>
      <point x="423" y="693"/>
      <point x="454" y="709"/>
      <point x="483" y="709" type="curve" smooth="yes"/>
      <point x="503" y="709"/>
      <point x="526" y="694"/>
    </contour>
  </outline>
</glyph>
<glyph name="uniFB02" format="2">
  <advance width="4952"/>
  <unicode hex="FB02"/>
  <outline>
    <contour>
      <point x="4792" y="1304" type="line"/>
      <point x="4488" y="504"/>
      <point x="4016" y="-80"/>
      <point x="3368" y="-80" type="curve" smooth="yes"/>
      <point x="2992" y="-80"/>
      <point x="2800" y="104"/>
      <point x="2800" y="504" type="curve" smooth="yes"/>
      <point x="2800" y="544"/>
      <point x="2808" y="632"/>
      <point x="2816" y="680" type="curve" smooth="yes"/>
      <point x="4000" y="5840" type="line"/>
      <point x="4792" y="6160" type="line"/>
      <point x="3424" y="288" type="line" smooth="yes"/>
      <point x="3416" y="240"/>
      <point x="3408" y="184"/>
      <point x="3408" y="144" type="curve" smooth="yes"/>
      <point x="3408" y="56"/>
      <point x="3448" y="-8"/>
      <point x="3552" y="-8" type="curve" smooth="yes"/>
      <point x="4056" y="-8"/>
      <point x="4520" y="600"/>
      <point x="4784" y="1312" type="curve"/>
    </contour>
    <contour>
      <point x="416" y="3680" type="line"/>
      <point x="2976" y="3680" type="line"/>
      <point x="2976" y="3664" type="line"/>
      <point x="416" y="3664" type="line"/>
    </contour>
    <contour>
      <point x="4208" y="5288" type="curve" smooth="yes"/>
      <point x="4208" y="4960"/>
      <point x="3992" y="4792"/>
      <point x="3752" y="4792" type="curve" smooth="yes"/>
      <point x="3552" y="4792"/>
      <point x="3304" y="4904"/>
      <point x="3304" y="5224" type="curve" smooth="yes"/>
      <point x="3304" y="5544"/>
      <point x="3552" y="5672"/>
      <point x="3784" y="5672" type="curve" smooth="yes"/>
      <point x="3944" y="5672"/>
      <point x="4128" y="5552"/>
      <point x="4176" y="5408" type="curve"/>
      <point x="4144" y="5680"/>
      <point x="3960" y="6064"/>
      <point x="3304" y="6064" type="curve" smooth="yes"/>
      <point x="2664" y="6064"/>
      <point x="2112" y="5296"/>
      <point x="1936" y="4320" type="curve" smooth="yes"/>
      <point x="1128" y="-96" type="line" smooth="yes"/>
      <point x="944" y="-1104"/>
      <point x="264" y="-2080"/>
      <point x="-776" y="-2080" type="curve" smooth="yes"/>
      <point x="-1424" y="-2080"/>
      <point x="-1680" y="-1624"/>
      <point x="-1680" y="-1288" type="curve" smooth="yes"/>
      <point x="-1680" y="-960"/>
      <point x="-1464" y="-792"/>
      <point x="-1224" y="-792" type="curve" smooth="yes"/>
      <point x="-1024" y="-792"/>
      <point x="-776" y="-904"/>
      <point x="-776" y="-1224" type="curve" smooth="yes"/>
      <point x="-776" y="-1544"/>
      <point x="-1024" y="-1672"/>
      <point x="-1256" y="-1672" type="curve" smooth="yes"/>
      <point x="-1416" y="-1672"/>
      <point x="-1600" y="-1560"/>
      <point x="-1648" y="-1408" type="curve"/>
      <point x="-1616" y="-1680"/>
      <point x="-1352" y="-2064"/>
      <point x="-776" y="-2064" type="curve" smooth="yes"/>
      <point x="-216" y="-2064"/>
      <point x="176" y="-1296"/>
      <point x="352" y="-320" type="curve" smooth="yes"/>
      <point x="1160" y="4096" type="line" smooth="yes"/>
      <point x="1344" y="5104"/>
      <point x="2184" y="6080"/>
      <point x="3304" y="6080" type="curve" smooth="yes"/>
      <point x="4016" y="6080"/>
      <point x="4208" y="5656"/>
    </contour>
  </outline>
</glyph>
<glyph name="uniFB04" format="2">
  <advance width="899"/>
  <unicode hex="FB04"/>
  <outline>
    <contour>
      <point x="879" y="163" type="line"/>
      <point x="841" y="63"/>
      <point x="782" y="-10"/>
      <point x="701" y="-10" type="curve" smooth="yes"/>
      <point x="654" y="-10"/>
      <point x="630" y="13"/>
      <point x="630" y="63" type="curve" smooth="yes"/>
      <point x="630" y="68"/>
      <point x="631" y="79"/>
      <point x="632" y="85" type="curve" smooth="yes"/>
      <point x="780" y="730" type="line"/>
      <point x="879" y="770" type="line"/>
      <point x="708" y="36" type="line" smooth="yes"/>
      <point x="707" y="30"/>
      <point x="706" y="23"/>
      <point x="706" y="18" type="curve" smooth="yes"/>
      <point x="706" y="7"/>
      <point x="711" y="-1"/>
      <point x="724" y="-1" type="curve" smooth="yes"/>
      <point x="787" y="-1"/>
      <point x="845" y="75"/>
      <point x="878" y="164" type="curve"/>
    </contour>
    <contour>
      <point x="52" y="460" type="line"/>
      <point x="652" y="460" type="line"/>
      <point x="652" y="458" type="line"/>
      <point x="52" y="458" type="line"/>
    </contour>
    <contour>
      <point x="802" y="676" type="curve"/>
      <point x="798" y="710"/>
      <point x="775" y="758"/>
      <point x="693" y="758" type="curve" smooth="yes"/>
      <point x="613" y="758"/>
      <point x="544" y="662"/>
      <point x="522" y="540" type="curve" smooth="yes"/>
      <point x="432" y="38" type="line" smooth="yes"/>
      <point x="409" y="-88"/>
      <point x="329" y="-210"/>
      <point x="189" y="-210" type="curve" smooth="yes"/>
      <point x="98" y="-210"/>
      <point x="66" y="-153"/>
      <point x="66" y="-111" type="curve" smooth="yes"/>
      <point x="66" y="-70"/>
      <point x="93" y="-49"/>
      <point x="123" y="-49" type="curve" smooth="yes"/>
      <point x="148" y="-49"/>
      <point x="179" y="-63"/>
      <point x="179" y="-103" type="curve" smooth="yes"/>
      <point x="179" y="-143"/>
      <point x="148" y="-159"/>
      <point x="119" y="-159" type="curve" smooth="yes"/>
      <point x="99" y="-159"/>
      <point x="76" y="-145"/>
      <point x="70" y="-126" type="curve"/>
      <point x="74" y="-160"/>
      <point x="107" y="-208"/>
      <point x="189" y="-208" type="curve" smooth="yes"/>
      <point x="269" y="-208"/>
      <point x="318" y="-112"/>
      <point x="340" y="10" type="curve" smooth="yes"/>
      <point x="425" y="512" type="line" smooth="yes"/>
      <point x="448" y="638"/>
      <point x="553" y="760"/>
      <point x="693" y="760" type="curve" smooth="yes"/>
      <point x="784" y="760"/>
      <point x="806" y="703"/>
      <point x="806" y="661" type="curve" smooth="yes"/>
      <point x="806" y="620"/>
      <point x="779" y="599"/>
      <point x="749" y="599" type="curve" smooth="yes"/>
      <point x="724" y="599"/>
      <point x="693" y="613"/>
      <point x="693" y="653" type="curve" smooth="yes"/>
      <point x="693" y="693"/>
      <point x="724" y="709"/>
      <point x="753" y="709" type="curve" smooth="yes"/>
      <point x="773" y="709"/>
      <point x="796" y="694"/>
    </contour>
    <contour>
      <point x="501" y="626" type="curve"/>
      <point x="497" y="660"/>
      <point x="464" y="708"/>
      <point x="382" y="708" type="curve" smooth="yes"/>
      <point x="302" y="708"/>
      <point x="253" y="612"/>
      <point x="231" y="490" type="curve" smooth="yes"/>
      <point x="141" y="-12" type="line" smooth="yes"/>
      <point x="118" y="-138"/>
      <point x="33" y="-260"/>
      <point x="-97" y="-260" type="curve" smooth="yes"/>
      <point x="-178" y="-260"/>
      <point x="-210" y="-203"/>
      <point x="-210" y="-161" type="curve" smooth="yes"/>
      <point x="-210" y="-120"/>
      <point x="-183" y="-99"/>
      <point x="-153" y="-99" type="curve" smooth="yes"/>
      <point x="-128" y="-99"/>
      <point x="-97" y="-113"/>
      <point x="-97" y="-153" type="curve" smooth="yes"/>
      <point x="-97" y="-193"/>
      <point x="-128" y="-209"/>
      <point x="-157" y="-209" type="curve" smooth="yes"/>
      <point x="-177" y="-209"/>
      <point x="-200" y="-195"/>
      <point x="-206" y="-176" type="curve"/>
      <point x="-202" y="-210"/>
      <point x="-169" y="-258"/>
      <point x="-97" y="-258" type="curve" smooth="yes"/>
      <point x="-27" y="-258"/>
      <point x="22" y="-162"/>
      <point x="44" y="-40" type="curve" smooth="yes"/>
      <point x="134" y="462" type="line" smooth="yes"/>
      <point x="157" y="588"/>
      <point x="242" y="710"/>
      <point x="382" y="710" type="curve" smooth="yes"/>
      <point x="473" y="710"/>
      <point x="505" y="653"/>
      <point x="505" y="611" type="curve" smooth="yes"/>
      <point x="505" y="570"/>
      <point x="478" y="549"/>
      <point x="448" y="549" type="curve" smooth="yes"/>
      <point x="423" y="549"/>
      <point x="392" y="563"/>
      <point x="392" y="603" type="curve" smooth="yes"/>
      <point x="392" y="643"/>
      <point x="423" y="659"/>
      <point x="452" y="659" type="curve" smooth="yes"/>
      <point x="472" y="659"/>
      <point x="495" y="644"/>
    </contour>
  </outline>
</glyph>
<glyph name="J.alt" format="2">
  <advance width="2194"/>
  <outline>
    <contour>
      <point x="1376" y="3072" type="line"/>
      <point x="2666" y="3072" type="line"/>
      <point x="2666" y="3064" type="line"/>
      <point x="1376" y="3064" type="line"/>
    </contour>
    <contour>
      <point x="1868" y="3072" type="line"/>
      <point x="2256" y="3072" type="line"/>
      <point x="1806" y="1146" type="line" smooth="yes"/>
      <point x="1658" y="524"/>
      <point x="1278" y="-40"/>
      <point x="618" y="-40" type="curve" smooth="yes"/>
      <point x="180" y="-40"/>
      <point x="20" y="266"/>
      <point x="20" y="552" type="curve" smooth="yes"/>
      <point x="20" y="846"/>
      <point x="172" y="984"/>
      <point x="336" y="984" type="curve" smooth="yes"/>
      <point x="480" y="984"/>
      <point x="606" y="908"/>
      <point x="606" y="720" type="curve" smooth="yes"/>
      <point x="606" y="576"/>
      <point x="496" y="462"/>
      <point x="316" y="462" type="curve" smooth="yes"/>
      <point x="184" y="462"/>
      <point x="68" y="532"/>
      <point x="32" y="634" type="curve"/>
      <point x="-4" y="294"/>
      <point x="176" y="-32"/>
      <point x="618" y="-32" type="curve" smooth="yes"/>
      <point x="1114" y="-32"/>
      <point x="1300" y="476"/>
      <point x="1418" y="1024" type="curve" smooth="yes"/>
    </contour>
  </outline>
</glyph>
<glyph name="R.alt" format="2">
  <advance width="5520"/>
  <outline>
    <contour>
      <point x="4920" y="0" type="line"/>
      <point x="4792" y="0"/>
      <point x="4728" y="0"/>
      <point x="4440" y="0" type="curve" smooth="yes"/>
      <point x="2656" y="0"/>
      <point x="4528" y="3072"/>
      <point x="2640" y="3072" type="curve" smooth="yes"/>
      <point x="1720" y="3072" type="line"/>
      <point x="1720" y="3088" type="line"/>
      <point x="2800" y="3088" type="line" smooth="yes"/>
      <point x="5384" y="3088"/>
      <point x="3816" y="16"/>
      <point x="4720" y="16" type="curve" smooth="yes"/>
      <point x="4808" y="16"/>
      <point x="4920" y="16"/>
      <point x="4920" y="16" type="curve"/>
    </contour>
    <contour>
      <point x="1880" y="6000" type="line"/>
      <point x="2640" y="6000" type="line"/>
      <point x="1240" y="0" type="line"/>
      <point x="480" y="0" type="line"/>
    </contour>
    <contour>
      <point x="-320" y="16" type="line"/>
      <point x="2120" y="16" type="line"/>
      <point x="2120" y="0" type="line"/>
      <point x="-320" y="0" type="line"/>
    </contour>
    <contour>
      <point x="2880" y="3072" type="curve" smooth="yes"/>
      <point x="1720" y="3072" type="line"/>
      <point x="1720" y="3088" type="line"/>
      <point x="2880" y="3088" type="line" smooth="yes"/>
      <point x="3968" y="3088"/>
      <point x="4520" y="4088"/>
      <point x="4520" y="4880" type="curve" smooth="yes"/>
      <point x="4520" y="5272"/>
      <point x="4448" y="5984"/>
      <point x="3680" y="5984" type="curve" smooth="yes"/>
      <point x="1000" y="5984" type="line"/>
      <point x="1000" y="6000" type="line"/>
      <point x="3680" y="6000" type="line" smooth="yes"/>
      <point x="4728" y="6000"/>
      <point x="5400" y="5680"/>
      <point x="5400" y="4800" type="curve" smooth="yes"/>
      <point x="5400" y="3680"/>
      <point x="4488" y="3072"/>
    </contour>
  </outline>
</glyph>
<glyph name="fj.lig" format="2">
  <advance width="532"/>
  <outline>
    <contour>
      <point x="333" y="10" type="curve" smooth="yes"/>
      <point x="416" y="457" type="line"/>
      <point x="52" y="458" type="line"/>
      <point x="52" y="460" type="line"/>
      <point x="503" y="460" type="line"/>
      <point x="425" y="38" type="line" smooth="yes"/>
      <point x="402" y="-88"/>
      <point x="322" y="-210"/>
      <point x="182" y="-210" type="curve" smooth="yes"/>
      <point x="91" y="-210"/>
      <point x="59" y="-153"/>
      <point x="59" y="-111" type="curve" smooth="yes"/>
      <point x="59" y="-70"/>
      <point x="86" y="-49"/>
      <point x="116" y="-49" type="curve" smooth="yes"/>
      <point x="141" y="-49"/>
      <point x="172" y="-63"/>
      <point x="172" y="-103" type="curve" smooth="yes"/>
      <point x="172" y="-143"/>
      <point x="141" y="-159"/>
      <point x="112" y="-159" type="curve" smooth="yes"/>
      <point x="82" y="-159"/>
      <point x="68" y="-136"/>
      <point x="64" y="-126" type="curve"/>
      <point x="66" y="-158"/>
      <point x="100" y="-208"/>
      <point x="182" y="-208" type="curve" smooth="yes"/>
      <point x="262" y="-208"/>
      <point x="310" y="-111"/>
    </contour>
    <contour>
      <point x="533" y="676" type="curve"/>
      <point x="526" y="712"/>
      <point x="495" y="758"/>
      <point x="403" y="758" type="curve" smooth="yes"/>
      <point x="313" y="758"/>
      <point x="264" y="662"/>
      <point x="242" y="540" type="curve" smooth="yes"/>
      <point x="141" y="-12" type="line" smooth="yes"/>
      <point x="118" y="-137"/>
      <point x="38" y="-260"/>
      <point x="-92" y="-260" type="curve" smooth="yes"/>
      <point x="-173" y="-260"/>
      <point x="-205" y="-203"/>
      <point x="-205" y="-161" type="curve" smooth="yes"/>
      <point x="-205" y="-120"/>
      <point x="-178" y="-99"/>
      <point x="-148" y="-99" type="curve" smooth="yes"/>
      <point x="-123" y="-99"/>
      <point x="-92" y="-113"/>
      <point x="-92" y="-153" type="curve" smooth="yes"/>
      <point x="-92" y="-193"/>
      <point x="-123" y="-209"/>
      <point x="-152" y="-209" type="curve" smooth="yes"/>
      <point x="-182" y="-209"/>
      <point x="-198" y="-186"/>
      <point x="-202" y="-176" type="curve"/>
      <point x="-196" y="-208"/>
      <point x="-169" y="-258"/>
      <point x="-92" y="-258" type="curve" smooth="yes"/>
      <point x="-22" y="-258"/>
      <point x="28" y="-162"/>
      <point x="49" y="-40" type="curve" smooth="yes"/>
      <point x="145" y="512" type="line" smooth="yes"/>
      <point x="167" y="638"/>
      <point x="253" y="760"/>
      <point x="403" y="760" type="curve" smooth="yes"/>
      <point x="504" y="760"/>
      <point x="536" y="703"/>
      <point x="536" y="661" type="curve" smooth="yes"/>
      <point x="536" y="620"/>
      <point x="509" y="599"/>
      <point x="479" y="599" type="curve" smooth="yes"/>
      <point x="454" y="599"/>
      <point x="423" y="613"/>
      <point x="423" y="653" type="curve" smooth="yes"/>
      <point x="423" y="693"/>
      <point x="454" y="709"/>
      <point x="483" y="709" type="curve" smooth="yes"/>
      <point x="513" y="709"/>
      <point x="529" y="687"/>
    </contour>
  </outline>
</glyph>
<glyph name="four.alt" format="2">
  <advance width="2436"/>
  <outline>
    <contour>
      <point x="2130" y="2040" type="curve"/>
      <point x="1677" y="0" type="line"/>
      <point x="1287" y="0" type="line"/>
      <point x="1720" y="1958" type="line"/>
      <point x="1842" y="1958"/>
      <point x="2048" y="2000"/>
    </contour>
    <contour>
      <point x="2016" y="8" type="line"/>
      <point x="2016" y="0" type="line"/>
      <point x="930" y="0" type="line"/>
      <point x="930" y="8" type="line"/>
    </contour>
    <contour>
      <point x="78" y="802" type="curve"/>
      <point x="2232" y="802" type="line"/>
      <point x="2232" y="794" type="line"/>
      <point x="62" y="794" type="line"/>
      <point x="636" y="1614"/>
      <point x="1844" y="2458"/>
      <point x="1926" y="3072" type="curve"/>
      <point x="2326" y="3072" type="line"/>
      <point x="2248" y="2478"/>
      <point x="692" y="1596"/>
    </contour>
  </outline>
</glyph>
<glyph name="v.alt" format="2">
  <advance width="1866"/>
  <outline>
    <contour>
      <point x="676" y="1946" type="curve"/>
      <point x="680" y="1942" type="line"/>
      <point x="512" y="1848"/>
      <point x="472" y="1690"/>
      <point x="472" y="1568" type="curve" smooth="yes"/>
      <point x="472" y="1228"/>
      <point x="876" y="1060"/>
      <point x="876" y="552" type="curve" smooth="yes"/>
      <point x="876" y="482"/>
      <point x="852" y="234"/>
      <point x="844" y="140" type="curve"/>
      <point x="1504" y="496"/>
      <point x="1840" y="870"/>
      <point x="1840" y="1410" type="curve" smooth="yes"/>
      <point x="1840" y="1520"/>
      <point x="1822" y="1670"/>
      <point x="1786" y="1720" type="curve"/>
      <point x="1782" y="1618"/>
      <point x="1684" y="1454"/>
      <point x="1508" y="1454" type="curve" smooth="yes"/>
      <point x="1344" y="1454"/>
      <point x="1278" y="1586"/>
      <point x="1278" y="1688" type="curve" smooth="yes"/>
      <point x="1278" y="1810"/>
      <point x="1376" y="1922"/>
      <point x="1528" y="1922" type="curve" smooth="yes"/>
      <point x="1786" y="1922"/>
      <point x="1848" y="1660"/>
      <point x="1848" y="1410" type="curve" smooth="yes"/>
      <point x="1848" y="718"/>
      <point x="1294" y="340"/>
      <point x="496" y="-50" type="curve"/>
      <point x="488" y="-40" type="line"/>
      <point x="496" y="50"/>
      <point x="504" y="352"/>
      <point x="504" y="434" type="curve" smooth="yes"/>
      <point x="504" y="750"/>
      <point x="122" y="1020"/>
      <point x="122" y="1324" type="curve" smooth="yes"/>
      <point x="122" y="1652"/>
      <point x="472" y="1848"/>
    </contour>
  </outline>
</glyph>
